<svg xmlns="http://www.w3.org/2000/svg" viewBox="0 0 310.9 251.28"><defs><style>.a{fill:#c69c6d;}.b,.c{fill:none;}.b{stroke:#c69c6d;stroke-miterlimit:10;}</style></defs><path class="a" d="M232.54,44.24a61.94,61.94,0,1,1-61.93,61.93,62,62,0,0,1,61.93-61.93m0-1a62.94,62.94,0,1,0,62.94,62.93,62.94,62.94,0,0,0-62.94-62.93Z"/><line class="b" y1="106.17" x2="271.62" y2="106.17"/><line class="b" x1="84.61" y1="154.66" x2="283.2" y2="154.66"/><path class="a" d="M232.54,28.82a77.36,77.36,0,1,1-77.35,77.35,77.44,77.44,0,0,1,77.35-77.35m0-1a78.36,78.36,0,1,0,78.36,78.35,78.35,78.35,0,0,0-78.36-78.35Z"/><path class="a" d="M83.61,93.48a12.7,12.7,0,1,1-12.7,12.69,12.71,12.71,0,0,1,12.7-12.69m0-1a13.7,13.7,0,1,0,13.7,13.69,13.69,13.69,0,0,0-13.7-13.69Z"/><path class="a" d="M65.13,70.62a35.55,35.55,0,1,1-35.55,35.55A35.59,35.59,0,0,1,65.13,70.62m0-1a36.55,36.55,0,1,0,36.55,36.55A36.55,36.55,0,0,0,65.13,69.62Z"/><path class="a" d="M133.33,16.92a12.7,12.7,0,1,1-12.69,12.7,12.71,12.71,0,0,1,12.69-12.7m0-1A13.7,13.7,0,1,0,147,29.62a13.69,13.69,0,0,0-13.7-13.7Z"/><path class="a" d="M140.11,143.72a25.82,25.82,0,1,1-25.82,25.82,25.85,25.85,0,0,1,25.82-25.82m0-1a26.82,26.82,0,1,0,26.82,26.82,26.82,26.82,0,0,0-26.82-26.82Z"/><path class="a" d="M193.63,198.43a21.12,21.12,0,1,1-21.11,21.11,21.14,21.14,0,0,1,21.11-21.11m0-1a22.12,22.12,0,1,0,22.12,22.11,22.11,22.11,0,0,0-22.12-22.11Z"/><path class="a" d="M210.52,126.74v59.32H136.9V126.74h73.62m1-1H135.9v61.32h75.62V125.74Z"/><path class="a" d="M274.09,15.94V80.79H191.84V15.94h82.25m1-1H190.84V81.79h84.25V14.94Z"/><path class="a" d="M203.77,65.31V88H124.08V65.31h79.69m1-1H123.08V89h81.69V64.31Z"/><path class="b" d="M121.34,118.3a15,15,0,0,0,0-24.25"/><path class="b" d="M131.53,58.35a26.72,26.72,0,0,0,30.54-30.54"/><path class="b" d="M5.6,111.83a7,7,0,0,0,0-11.31"/><path class="b" d="M78.56,113.38a8.92,8.92,0,0,1,0-14.42"/><line class="b" x1="114.9" y1="71.15" x2="114.9" y2="141.2"/><line class="b" x1="108.29" y1="85.23" x2="108.29" y2="127.11"/><line class="b" x1="232.54" y1="73.15" x2="232.54" y2="213.28"/><line class="b" x1="249.98" x2="249.98" y2="238.85"/><line class="b" x1="181.48" y1="95.45" x2="181.48" y2="251.28"/><line class="b" x1="110.19" y1="6.47" x2="243.82" y2="140.1"/><path class="a" d="M133.33,12.71a16.91,16.91,0,1,1-16.9,16.91,16.93,16.93,0,0,1,16.9-16.91m0-1a17.91,17.91,0,1,0,17.91,17.91,17.91,17.91,0,0,0-17.91-17.91Z"/><line class="b" x1="222.07" y1="195.93" x2="242.84" y2="195.93"/><line class="b" x1="222.16" y1="202.49" x2="242.93" y2="202.49"/><line class="b" x1="157.87" y1="219.54" x2="193.63" y2="219.54"/><line class="b" x1="96.19" y1="143.21" x2="96.19" y2="166.11"/><line class="b" x1="39.09" y1="92.48" x2="39.09" y2="119.87"/><line class="b" x1="135.9" y1="95.74" x2="135.9" y2="116.61"/><line class="b" x1="140.49" y1="95.74" x2="140.49" y2="116.61"/><line class="b" x1="145.04" y1="95.74" x2="145.04" y2="116.61"/><line class="b" x1="45.55" y1="90.26" x2="45.55" y2="122.09"/><line class="b" x1="51.85" y1="88.29" x2="51.85" y2="124.06"/><path class="b" d="M177,196.49a28.44,28.44,0,1,1,0,46.11"/><path class="b" d="M90,70.65a43.81,43.81,0,1,0,0,71"/><line class="c" x1="177" y1="196.49" x2="177" y2="191.11"/><line class="c" x1="177" y1="246.94" x2="177" y2="242.6"/><path class="b" d="M7.56,116.68a13,13,0,0,0,5.35-10.51A13,13,0,0,0,7.56,95.66"/></svg>