<svg xmlns="http://www.w3.org/2000/svg" viewBox="0 0 183.05 366.09"><rect x="156.9" width="26.15" height="26.15"/><rect x="104.6" y="26.15" width="26.15" height="26.15"/><rect x="130.75" y="26.15" width="26.15" height="26.15"/><rect x="156.9" y="52.3" width="26.15" height="26.15"/><rect x="156.9" y="156.9" width="26.15" height="26.15"/><rect x="130.75" y="156.9" width="26.15" height="26.15"/><rect x="104.6" y="130.75" width="26.15" height="26.15"/><rect x="78.45" y="156.9" width="26.15" height="26.15"/><rect x="130.75" y="78.45" width="26.15" height="26.15"/><rect x="104.6" y="52.3" width="26.15" height="26.15"/><rect x="26.15" y="78.45" width="26.15" height="26.15"/><rect x="78.45" y="26.15" width="26.15" height="26.15"/><rect x="26.15" y="26.15" width="26.15" height="26.15"/><rect x="156.9" y="26.15" width="26.15" height="26.15"/><rect x="104.6" width="26.15" height="26.15"/><rect x="52.3" y="52.3" width="26.15" height="26.15"/><rect x="156.9" y="78.45" width="26.15" height="26.15"/><rect x="130.75" y="104.6" width="26.15" height="26.15"/><rect x="156.9" y="130.75" width="26.15" height="26.15"/><rect x="104.6" y="104.6" width="26.15" height="26.15"/><rect x="52.3" y="104.6" width="26.15" height="26.15"/><rect x="78.45" y="78.45" width="26.15" height="26.15"/><rect x="156.9" y="183.05" width="26.15" height="26.15"/><rect x="104.6" y="209.2" width="26.15" height="26.15"/><rect x="130.75" y="209.2" width="26.15" height="26.15"/><rect x="156.9" y="235.34" width="26.15" height="26.15"/><rect x="130.75" y="339.94" width="26.15" height="26.15"/><rect x="104.6" y="313.79" width="26.15" height="26.15"/><rect x="78.45" y="339.94" width="26.15" height="26.15"/><rect x="130.75" y="261.49" width="26.15" height="26.15"/><rect x="104.6" y="235.34" width="26.15" height="26.15"/><rect x="26.15" y="261.49" width="26.15" height="26.15"/><rect x="78.45" y="209.2" width="26.15" height="26.15"/><rect x="26.15" y="209.2" width="26.15" height="26.15"/><rect x="156.9" y="209.2" width="26.15" height="26.15"/><rect x="104.6" y="183.05" width="26.15" height="26.15"/><rect x="52.3" y="235.34" width="26.15" height="26.15"/><rect y="235.34" width="26.15" height="26.15"/><rect x="156.9" y="261.49" width="26.15" height="26.15"/><rect x="130.75" y="287.64" width="26.15" height="26.15"/><rect x="156.9" y="313.79" width="26.15" height="26.15"/><rect x="104.6" y="287.64" width="26.15" height="26.15"/><rect x="52.3" y="287.64" width="26.15" height="26.15"/><rect x="78.45" y="261.49" width="26.15" height="26.15"/></svg>