<?xml version="1.0" encoding="utf-8"?>
<!-- Generator: Adobe Illustrator 25.2.0, SVG Export Plug-In . SVG Version: 6.00 Build 0)  -->
<svg version="1.1" id="Layer_1" xmlns="http://www.w3.org/2000/svg" xmlns:xlink="http://www.w3.org/1999/xlink" x="0px" y="0px"
	 viewBox="0 0 1920 1080" style="enable-background:new 0 0 1920 1080;" xml:space="preserve">
<style type="text/css">
	.st0{fill:none;stroke:#000000;stroke-width:1.0367;stroke-miterlimit:10;}
	.st1{fill:none;stroke:#000000;stroke-width:1.3152;stroke-miterlimit:10;}
	.st2{fill:none;stroke:#000000;stroke-width:0.9864;stroke-miterlimit:10;}
	.st3{fill:none;stroke:#000000;stroke-width:0.9627;stroke-miterlimit:10;}
	.st4{fill:none;stroke:#000000;stroke-width:0.7405;stroke-miterlimit:10;}
	.st5{fill:none;stroke:#000000;stroke-width:0.6223;stroke-miterlimit:10;}
	.st6{fill:none;stroke:#000000;stroke-width:1.3561;stroke-miterlimit:10;}
	.st7{fill:none;stroke:#000000;stroke-width:0.8172;stroke-miterlimit:10;}
	.st8{fill:none;stroke:#000000;stroke-width:0.8147;stroke-miterlimit:10;}
	.st9{fill:none;stroke:#000000;stroke-width:0.8885;stroke-miterlimit:10;}
	.st10{fill:none;stroke:#000000;stroke-width:0.5553;stroke-miterlimit:10;}
	.st11{fill:none;stroke:#000000;stroke-width:0.3702;stroke-miterlimit:10;}
	.st12{fill:none;stroke:#000000;stroke-width:0.6638;stroke-miterlimit:10;}
	.st13{fill:none;stroke:#000000;stroke-width:1.1848;stroke-miterlimit:10;}
	.st14{fill:none;stroke:#000000;stroke-width:0.8145;stroke-miterlimit:10;}
	.st15{fill:none;stroke:#000000;stroke-width:0.5183;stroke-miterlimit:10;}
	.st16{fill:none;stroke:#000000;stroke-width:0.6477;stroke-miterlimit:10;}
	.st17{fill:none;stroke:#000000;stroke-width:1.0843;stroke-miterlimit:10;}
	.st18{fill:none;stroke:#000000;stroke-width:0.8441;stroke-miterlimit:10;}
	.st19{fill:none;stroke:#000000;stroke-width:1.4809;stroke-miterlimit:10;}
	.st20{fill:none;stroke:#000000;stroke-width:0.9854;stroke-miterlimit:10;}
	.st21{fill:none;stroke:#000000;stroke-width:0.7951;stroke-miterlimit:10;}
	.st22{fill:none;stroke:#000000;stroke-width:0.5924;stroke-miterlimit:10;}
	.st23{fill:none;stroke:#000000;stroke-width:0.6665;stroke-miterlimit:10;}
	.st24{fill:none;stroke:#000000;stroke-width:1.2836;stroke-miterlimit:10;}
</style>
<path class="st0" d="M1307.6,579.4c-32.8,48-74.2,93.7-110.4,131.1c-33.7,34.8-66.6,82-91.2,120c-40,62-30.8,131.4,9.9,161.8
	c37.2,27.7,96.1,6.5,111.6-20.2c14.2-24.6,8.7-53.6-6.1-68.9c-13.7-14.2-43.5-18.7-62.6-1.7c-18.2,16.2-19.4,45,5.1,53.9"/>
<path class="st1" d="M2039.8,468.4c-60.6-69.9-123.1-112-215.2-123.9c-95.6-12.3-181.4,10.9-275.5,70.7
	c-96.3,61.3-161.7,164.6-179.9,240.9c-20.8,87.4,16.4,171.7,98.3,196.1c70.8,21,127,8.4,161.8-35.2c30.6-38.3,42.2-119-20.1-158.5
	c-40.9-25.8-95.3-9.2-122.1,23.8c-21.6,26.7-22.2,65.4-10.7,84.2c10.8,17.5,27.9,24,40.1,23.6c10.8-0.4,26.8-7,28.3-19.8"/>
<path class="st2" d="M2036.5,472.5c-22.9-21.7-56.6-53.7-84-68.6c-46.5-25.1-101-37.7-154-30.2c-26.7,3.8-58.6,18.2-79.9,34.5
	c-29.1,22.3-46.3,59.3-44.7,97.4c1.8,40.7,29.4,77.2,59.5,89.3c26.3,10.5,61.9,8.9,84.8-12.7c25.1-23.8,30.3-51.1,19.2-77.7
	c-9.3-22.2-32-31.7-54.8-27.7c-27.5,4.8-42.7,32.6-31.2,50"/>
<path class="st1" d="M2049.3,459.6c-54.5-83.3-189.4-169.5-329.1-172.5c-115.8-2.5-236.2,20.1-297.6,23.4
	c-59,3.2-124.5-27-147.9-55.9c-23.4-28.9-36.9-55.7-36.1-81.5c1.2-36.8,17.4-71.4,45.2-91.2c23.6-16.9,61.8-27,95.9-19.5
	c31.5,6.9,59.8,27.4,72.8,49.7c16,27.7,11.3,74.2-8,97.5c-16.1,19.5-46.1,26.4-69.7,19.3c-27.9-8.5-44.6-36.4-20.1-59"/>
<path class="st3" d="M1352.2,293.7c-43.2-12.5-72.3-44.6-83.8-80.3c-6.6-20.3-5.3-49.4,10.5-68.7c18-22,50.5-24.2,65.9-7.9"/>
<path class="st4" d="M1485.8,485.4c-49.5,46.8-70.5,91.6-71.2,123.6c-0.4,18,6.7,40.8,29.5,42.6c13.4,1.1,23.1-10.2,23.6-23.6"/>
<path class="st5" d="M1539,831.4c31.7-5.9,60.5-20.2,72.9-57.4c8.8-26.5,4.3-53.9-8.1-69.3c-13.9-17.3-39.4-21.1-55.5-10.8
	c-13.9,8.9-14.2,33.4,5,36.3"/>
<path class="st6" d="M1545.2,332.8c-45.9,10-99.6,31.5-146.9,60.8c-60.2,37.2-85.7,61.8-135.7,97c-50,35.1-111.1,71.6-173.9,79.8
	c-87.9,11.4-179.9-29.6-207.4-112.2c-10.3-30.9-14.2-75.9,6.4-115.2c19-36.3,57-61.4,106.2-58.1c41,2.7,67.8,37.5,66,71.1
	c-1.7,32-30.8,57.6-58.8,56.6c-41.2-1.5-55.3-45.1-29.6-63.2"/>
<path class="st7" d="M1403.4,386.6c-57.7,31.5-101.1,76-164.5,95.5c-37.6,11.6-69.2-1.2-80.6-24.3c-8.6-17.3-1.1-45.4,29.9-54.9"/>
<path class="st4" d="M1629.5,383.3c-20.1,11.6-39.9,20.7-60.3,34.3c-20.4,13.7-45,38.1-55.1,60.8c-9.8,22-12.8,45.4-2.1,64.8
	c8.8,16.2,32.8,19.1,45.8,10.3"/>
<path class="st8" d="M770.3,884.8c-31.6-4.4-67.6-11.7-93.9-21.2c-29.7-10.6-52.4-32.5-57-56.5c-3.9-20.8,9-47.6,38.2-48.5"/>
<path class="st9" d="M777.7,929.4c-63,5.8-138.3-13.2-190.8-41c-37.9-20.1-82-64.5-103.9-98.1c-33.1-50.5-71-107-126.2-119.7
	c-61-14-122.3,7.5-151.5,56c-20.9,34.8-16.3,92.9,33.6,112c29.3,11.2,48.5,6.2,64.9-4.4c12.5-8.1,16.4-25.5,9.7-40.5
	c-8-18.1-33.3-25-44.3-5.9"/>
<path class="st4" d="M694.4,926.5c-41.2-3.7-84.9-16.8-116.5-35.4c-25-14.7-50.9-34.7-73.7-44.2c-20-8.4-46.4-7.4-50.8,12.6"/>
<path class="st4" d="M2054.2,454.8c-22-39-90.4-101.3-145.8-133.4c-35-20.2-68-39-105.9-51.7c-30.4-10.2-65.5-16.6-88.3-29.8
	c-21.4-12.3-43.3-31.5-52.4-53.3c-9-21.6-4-54.8,13.3-77.8c23.8-31.5,68-36.7,99-13c17.9,13.7,29.2,49.4,10.3,69.3
	c-13.2,14-33.6,15-47.2,7.4c-11.8-6.7-13.2-22.9-2.2-35.4"/>
<path class="st4" d="M1618.9,174.2"/>
<path class="st4" d="M1705.5,244.7c-33.2-14-62.6-48.6-61.9-89.1c0.7-37.6,16.9-49.3,19.2-77.4c3-36.1-33.2-56-58.1-40.5"/>
<path class="st10" d="M1918.9,327.5c-24-20.9-53.2-34.2-79.9-47c-24.3-11.6-41.3-20.5-53.6-31.3c-16.3-14.5-8.6-40.5,14.7-45.9
	c14.7-3.4,39.1,6.2,34.7,28.3"/>
<path class="st11" d="M1701.6,212.7c-18.5-14.7-29.2-31.3-29.3-51.3c-0.1-16,7.4-29.4,29.5-36.1"/>
<path class="st12" d="M1383.9,70.7c25.2,5.2,41.3,18.8,52.4,37.1c13.7,22.7,5.6,45.4,0.7,51c-6,6.8-18.4,11.5-27.1,9.5
	c-11.8-2.7-17.3-12.1-15.8-21.9"/>
<path class="st4" d="M1324.3,561.3c-23.6,38.5-49.5,74.9-68.7,100.8c-19.4,26.2-40.3,54.3-39.9,86.8c0.1,9.4,2,19.1,7.4,26.8
	c5.4,7.8,14.7,13.2,24.2,12.4"/>
<path class="st5" d="M1536.1,660.4c-51.4,22.3-60.9,67.1-46.5,85.6c8.2,10.6,27.1,9,33.9-3.1"/>
<path class="st13" d="M1332.4,633.4c-21.6,40.5-29.9,95.8-19.9,134.1c10.3,39.2,21.4,61.1,46.2,90.6c23.6,28,65,47.6,71.5,81.8
	c4.9,25.8-9.1,49.7-34.2,55.9c-25.7,6.5-48.2-7.4-44.9-28.9"/>
<path class="st14" d="M1305.4,749.6c0,50.9,22.1,92.8,46.2,119c23,24.9,20.1,63.8-18.2,59.3"/>
<path class="st15" d="M1672.1,453.3c-10.2,24.7-16.2,53.9-16.6,75.7c-0.4,17.4-10.1,32.8-24.3,38.1c-17.6,6.5-34.4-3.6-35.7-20.1
	c-1.1-14.4,12.4-32.7,27-28.4"/>
<path class="st15" d="M1770.2,612c31,1.2,58.5-17.2,73.9-41.2c14.4-22.6,23.9-34.5,48.2-32.1"/>
<path class="st16" d="M1542.7,873.4c24.3,2.2,66.3-12.5,88.4-30.2c19.7-15.8,37.6-47.9,43.5-71.5c6.6-26.2,25.8-42,49.4-39.1"/>
<path class="st4" d="M1045,868.3c-34.8,31.8-63.7,49.1-94.9,61.9c-28.7,11.8-73.7,19.2-110.5,19.2c-39.8,0-78.6,8.3-98,25
	c-21.1,18.2-11.8,51.6,12.6,54.7"/>
<path class="st4" d="M828.5,971.6"/>
<path class="st17" d="M1053.8,604.5c-86.5,8.6-145.8-19.8-182.4-50.8c-31.8-27-49.4-61-59.2-117.2c-11.2-64.4,12-114.1,8.8-168.3
	c-3-52.1-37.9-92.7-82.4-100.5c-45-7.8-85,24.7-88,66.9c-2.6,37.6,30.9,74.4,58.2,66.3c23.5-7,34.7-28.7,25-45.7"/>
<path class="st18" d="M1084.9,860.6c-13.8,26.3-16.5,47.2-13.4,76.4c2,19.6,11.7,37.8,15.8,50.4c7.1,21.5-10.2,32.2-19.9,32"/>
<path class="st4" d="M1008.3,902.9c-28.7,28-70.8,47.2-118.9,53.2c-33.3,4.2-64.6,11.6-64.8,40.5"/>
<path class="st19" d="M2045.4,465c-27.8-34.9-81.5-86.7-127.2-109.4c-112.8-56-240.5-48.4-326.4-17
	c-116.3,42.5-171.1,115.6-251.7,200.8c-62.5,66.1-109.7,123.7-175.7,186.4C1104.8,782.5,1043,830.6,985,860.4
	c-83.1,42.6-190,45.7-284,23.2c-100.4-24-179.5-96.1-186.1-172.4c-8-91.7,40.8-157.3,112.1-152.8c47.2,3,74.4,28,77.8,64.3
	c3.2,34.9-13.9,68.1-43.2,76c-31.3,8.5-55.9,1.9-71.6-22.9c-13.3-20.9-2.1-54,23.5-54.8c15.4-0.5,23.6,12.7,20.5,24.3"/>
<path class="st19" d="M587.8,630.4"/>
<path class="st20" d="M570.4,824.6c-58.6-51.4-82.9-86.5-67.5-185c6.6-41.9,26.8-61.7,28.6-96.4c1.3-25.3-16.6-47.8-39.5-48.2
	c-33.4-0.7-47.8,31.4-35.7,50.9"/>
<path class="st21" d="M911.5,583.7c-42.1-18-87.7-57.4-101.8-96.6c-13.4-37.4-16.1-70.1-19.4-110.1c-2.4-28.6-21.2-49.9-48.9-45.5
	c-26,4.1-33.5,28.6-28.3,46.6c4.6,16,21.8,27.1,40.7,14.5"/>
<path class="st22" d="M468.1,776.8c-25.8-31.7-46.1-53.2-60.4-65.6c-15.8-13.7-43.6-24.2-59.5-25.2c-17.3-1.1-32.8,8.5-35.6,22.9
	c-3.4,17.3,13,29.8,26.5,22.2"/>
<path class="st6" d="M934.2,594c-45.8-8.8-99.2-46.6-124.4-82.9c-13.3-19.3-27.4-37-52-47.5"/>
<path class="st14" d="M1073.4,695.4"/>
<path class="st23" d="M939.1,304.6c29-12.6,65.1-9.6,78.4,3.3c12.2,11.9,22.3,29.3,13.2,46.1c-9.1,16.7-25.7,17.3-35.9,4.7"/>
<path class="st14" d="M808.4,340.8c5.1-37.6,6.3-70.5-4.2-99.7c-10.6-29.5-33.4-42.2-58.8-39.6c-23.6,2.5-30.6,16.6-28.5,29.5"/>
<path class="st6" d="M870.9,371.3c2.5-30.9,16.1-59.8,37-74c23.8-16.2,41-23.8,66.2-31.3c18-5.4,32.8-14,39.7-28.6
	c6.4-13.4,9-32.8-1.9-49.4"/>
<path class="st13" d="M1344.8,475.4c-76.1,54.5-154.6,141.6-234.6,218.8c-44.7,43.2-92.8,74-137.7,80c-49.4,6.7-107.5,0.8-137-29.5
	c-28.7-29.5-27.2-72.9,5.2-97.3c27.5-20.6,70.4-10.7,83.9,14.1c15.6,28.6-13.9,64-37.5,59.6"/>
<path class="st4" d="M1234.2,566.5c-47.1,38.8-94.3,97.2-136.1,128.5c-47.6,35.8-95.6,40.5-111.8,1.4"/>
<path class="st4" d="M1056.2,749.6c-95.4,68.9-181.7,29.6-245,33.3c-36.6,2.1-56,19.4-55.5,53.2"/>
<path class="st24" d="M1751.6,283.9c-59.5-9.6-108.5-8.2-171.6-6.1c-53.4,1.8-74.4-18.4-72.7-61.3"/>
<path class="st12" d="M1262.1,94.9c18-30.2,59.2-46.1,97.8-47.5c23.8-0.9,48.5,5.3,71.8,10.2c25.6,5.3,47.3-22.7,26.2-44"/>
</svg>
