<?xml version="1.0" encoding="utf-8"?>
<!-- Generator: Adobe Illustrator 24.1.2, SVG Export Plug-In . SVG Version: 6.00 Build 0)  -->
<svg version="1.0" id="Layer_1" xmlns="http://www.w3.org/2000/svg" xmlns:xlink="http://www.w3.org/1999/xlink" x="0px" y="0px"
	 viewBox="0 0 1920 1080" style="enable-background:new 0 0 1920 1080;" xml:space="preserve">
<style type="text/css">
	.st0{fill:none;stroke:#000000;stroke-width:1.4066;stroke-miterlimit:10;}
	.st1{fill:none;stroke:#000000;stroke-width:1.7844;stroke-miterlimit:10;}
	.st2{fill:none;stroke:#000000;stroke-width:1.3383;stroke-miterlimit:10;}
	.st3{fill:none;stroke:#000000;stroke-width:1.0047;stroke-miterlimit:10;}
	.st4{fill:none;stroke:#000000;stroke-width:0.9653;stroke-miterlimit:10;}
	.st5{fill:none;stroke:#000000;stroke-width:1.84;stroke-miterlimit:10;}
	.st6{fill:none;stroke:#000000;stroke-width:1.1088;stroke-miterlimit:10;}
	.st7{fill:none;stroke:#000000;stroke-width:1.1054;stroke-miterlimit:10;}
	.st8{fill:none;stroke:#000000;stroke-width:1.2057;stroke-miterlimit:10;}
	.st9{fill:none;stroke:#000000;stroke-miterlimit:10;}
	.st10{fill:none;stroke:#000000;stroke-width:0.7536;stroke-miterlimit:10;}
	.st11{fill:none;stroke:#000000;stroke-width:0.5024;stroke-miterlimit:10;}
	.st12{fill:none;stroke:#000000;stroke-width:1.6076;stroke-miterlimit:10;}
	.st13{fill:none;stroke:#000000;stroke-width:1.1052;stroke-miterlimit:10;}
	.st14{fill:none;stroke:#000000;stroke-width:0.7033;stroke-miterlimit:10;}
	.st15{fill:none;stroke:#000000;stroke-width:1.4712;stroke-miterlimit:10;}
	.st16{fill:none;stroke:#000000;stroke-width:1.1452;stroke-miterlimit:10;}
	.st17{fill:none;stroke:#000000;stroke-width:2.0095;stroke-miterlimit:10;}
	.st18{fill:none;stroke:#000000;stroke-width:1.337;stroke-miterlimit:10;}
	.st19{fill:none;stroke:#000000;stroke-width:1.0789;stroke-miterlimit:10;}
	.st20{fill:none;stroke:#000000;stroke-width:0.8038;stroke-miterlimit:10;}
	.st21{fill:none;stroke:#000000;stroke-width:0.9043;stroke-miterlimit:10;}
</style>
<path class="st0" d="M813.5,619.8c40.6-56,89.5-110.1,137.6-161.9c44.7-48.1,98.4-115.6,130.6-167.8c52.4-85.3,38-179.2-18.2-219.3
	c-51.2-36.6-129.7-26-154.5,7.7c-22.8,31.1-19.6,71-2,93.8c16.3,21.1,55.9,31.6,84.2,11.5c26.9-19.2,32.8-57.8,1.1-73.3"/>
<path class="st1" d="M-178.4,809.3c84.2,93,173.7,151.3,299.4,160.8c130.5,9.8,245.9-20,371.7-103.9
	c128.8-85.9,212.1-218.4,236.5-329.7c27.9-127.5-24.2-242.2-149.7-278c-108.5-30.9-199.9-0.4-253.9,66.8
	c-47.4,59-71.5,180.2,28.9,237.7c65.8,37.7,151.7,10.6,193.1-40.4c33.6-41.3,33.2-99.8,14.3-127.9c-17.6-26.2-45.1-35.4-64.4-34.2
	c-17.1,1-42.4,11.6-44.3,31"/>
<path class="st2" d="M-163.4,828.2c85.3,77.6,196.6,128.9,310.9,110.3c36.1-5.9,81.4-25,109.8-47.8c38.8-31.1,61.1-81.8,57.8-133.4
	c-3.5-55.2-42.1-103.9-83.4-119.5c-35.9-13.5-84.3-10.3-114.6,19.7c-33.4,33-39.7,70.3-23.8,106c13.2,29.8,44.2,42,75.2,35.9
	c37.2-7.4,57-45.4,40.9-68.7"/>
<path class="st1" d="M-173.8,818.1C-87.9,923.4,106.4,1030,264.3,1045c156.4,14.8,303.5-42.1,387.2-48.6
	c80.4-6.2,163.3,16.8,199.1,60.4c35.8,43.6,56.8,84.3,56.4,124c-0.6,56.5-23.7,110.2-64.5,141.6c-34.7,26.7-91.4,43.5-142.5,33.1
	c-47.2-9.6-90.2-40.1-110.1-73.9c-24.8-42-19.3-113.5,8.8-150c23.4-30.5,67.9-42,103.4-31.8c42,12.1,67.7,54.5,31.8,89.9"/>
<path class="st2" d="M776.1,1023.4c54.4,29.3,82.5,60.4,94.1,111.1c7.3,31.9-4.6,73.9-29.7,102.3c-23.3,26.2-71.9,38.5-101,8.1"/>
<path class="st3" d="M576.5,769.1c65.7-64.9,93-126.3,93-169.6c0-24.4-10.4-55.2-41.3-57c-18.2-1.1-31.1,14.5-31.4,32.6"/>
<path class="st4" d="M458.9,294.7c-41.9,12.3-86.7,41.5-107.6,97.7c-16.8,45.2-2.3,80,17.9,102.9c22.7,25.7,55.3,28.3,80.5,12.1
	c21.8-14.1,21.5-51-9.1-54.8"/>
<path class="st5" d="M500.4,977.9c62-14.8,134.2-45.6,197.5-86.7c80.5-52.2,114.5-86.4,181.3-135.5
	c66.8-49.1,148.7-100.4,233.6-113.2c118.9-18,236.7,35.9,272.6,148.5c14.5,45.4,23.4,102.2-3.3,156c-24.8,49.8-75.5,84.9-142.4,82
	c-55.6-2.5-93.1-48.9-91.6-94.5c1.4-43.4,40.1-79,78-78.5c56,0.8,76.3,59.5,42,84.9"/>
<path class="st6" d="M691.3,900.9c77.4-44.4,134.8-106,220.4-134.4c50.6-16.8,93.9-0.3,110.1,30.6c12.2,23.2,2.7,61.7-39,75.3"/>
<path class="st3" d="M477,678.8c30.8-9.8,54.5-0.1,64.4,22.9c11,25.6,3.3,53.4-10.3,77.8c-16.2,29-46.7,51.9-74,71.1
	c-27.3,19.2-48.8,37.9-72.6,61.2"/>
<path class="st7" d="M1536.5,219.1c45.6,7.6,72.6,6.6,106.6,15.9c51.4,14.1,81.8,48.5,94,83.6c11.3,32.8-5.3,61.7-44.8,63.7"/>
<path class="st8" d="M1589.6,153.9c90.4,1.2,178,22.1,239.9,70c46.1,35.6,99.3,100.9,123.1,149.7c35.9,73.6,66.1,162,137.5,190.2
	c70.3,27.8,133.8,8.6,165.2-42.1c19.6-31.6,25.7-88.3-0.1-123.7c-21.5-29.5-52-31.8-75.2-26.6c-17.7,4-30.1,21.3-30.1,41.3
	c0,24.1,24.8,42.5,47.1,32"/>
<path class="st9" d="M2538.6,277.9"/>
<path class="st3" d="M1689.1,164.6c47.9,4.1,121.6,27.1,161.2,62c23.3,20.5,53.3,48.1,71,59.5c24.8,15.8,61.4,20.9,82.9-0.4"/>
<path class="st3" d="M-197.5,809.9c33,68.4,110.3,145.9,200.8,205c45.9,30,93.4,50.9,145.2,67c41.5,12.9,89.3,20.6,120.6,37.8
	c29.3,16.1,59.6,41.5,72.6,70.8c12.9,29,11.3,77.7-15.8,105.8c-27.5,28.6-68.3,32.5-100.6,7.5c-24.1-18.7-28.9-60.1-4.2-84.1
	c11-10.8,27.1-12,39.5-6.2c12.5,5.7,20.8,17.5,17.7,32.7"/>
<path class="st3" d="M405.1,1195.2"/>
<path class="st3" d="M254.1,1098.3c30.2,10.6,86.5,62.1,103.4,89c15,23.9,20.7,65.2,30.1,83.9c16.8,33.5,51.5,48.5,89.5,35.7"/>
<path class="st10" d="M-11.1,1007.1c33.1,27.7,73.1,44.8,109.9,61.5c33.3,15.1,56.7,26.5,73.6,41c22.5,19.3,12.8,54.6-18.6,62.7
	c-19.8,5.1-53.3-7.3-47.8-37.4"/>
<path class="st11" d="M291.7,1145.3c25.5,19.4,40.6,41.7,41.3,68.8c0.6,21.7-8.8,39.6-38,43.5"/>
<path class="st3" d="M641.1,1305.7c-27.5-26.7-42.4-50.5-47.2-83.1c-5.9-40.2,18.2-67.5,28.2-72.6c12.1-6.2,31.9-5.4,42.9,2.6
	c14.8,10.8,17,27.4,9.3,40.4"/>
<path class="st3" d="M810.7,636.2c19.3-48,46.1-78.5,73.1-113.5c27-35,53-74.9,51.6-118.9c-0.4-12.8-3.3-25.8-10.9-36.2
	c-7.5-10.4-20.3-17.5-33.1-16.2"/>
<path class="st4" d="M470.3,557.7c81-35.6,94.6-103.7,71.2-131.3c-13.3-15.7-43.4-12.7-53.7,5.8"/>
<path class="st12" d="M780.3,563.9c28.2-55.6,37.9-130.8,23.1-182.4c-15.1-52.9-30.8-82.3-65.4-121.6
	c-32.8-37.3-89.5-62.8-99.3-108.9c-7.4-34.9,10.9-67.6,44.8-76.8c34.7-9.5,65.7,8.7,61.8,38"/>
<path class="st13" d="M804.7,386.4c-3.5-65.5-21-113.2-45.9-153.9c-20.6-33.6-17.2-68.8,13.4-72.8"/>
<path class="st14" d="M319,828.2c13.2-33.8,20.4-73.6,20.4-103.1c0-23.6,12.7-44.8,31.9-52.4c23.7-9.3,46.8,3.8,49,26.2
	c1.9,19.5-16,44.7-35.8,39.3"/>
<path class="st14" d="M181.3,615.8c-42.1-0.8-78.9,24.9-99.1,58.1c-19,31.1-31.4,47.5-64.4,45"/>
<path class="st3" d="M413.4,235.3c-46.3,12.3-79.3,25.4-111.2,61.1c-15.3,17.1-36.4,55.6-49.7,91.6c-12.8,34.8-39.8,66.5-72,67.4"/>
<path class="st3" d="M1163.4,237c46.3-44.2,80.1-67.1,122.9-82.8c39.4-14.5,110.6-34,152.7-33.3c54,0.8,99.2-6.2,125-29.5
	c28.1-25.4,21.5-65.5-10.7-81"/>
<path class="st3" d="M1454.1,90.5"/>
<path class="st15" d="M1181.8,624.7c117.8,9.2,214.6,83.7,251.6,230.4c21.7,85.9,3.2,147.3,7.2,220.9
	c3.9,70.7,51.9,139.3,112.7,146.9c58,7.3,95.1-23.5,106-65.3c13-49.5-23.1-91.4-60-93c-33.2-1.5-45.7,18.5-39.6,42.5"/>
<path class="st16" d="M1127.9,186.2c6.6-37.6-5-72.8-25.6-99c-16.6-21-34.4-59.3-39.6-86.7c-5.8-30.3,11.6-53.2,45.4-53.2"/>
<path class="st3" d="M1213.2,194.4c52.9-56.2,138.7-82.8,185.6-85.6c45.4-2.7,71.9-23.2,86.7-56.7"/>
<path class="st17" d="M-180.7,810.3c37.9,45,121,106.3,172.1,131.9c169.7,85.1,326.9,68.2,442.6,23.1
	c156.5-61,231.8-155.9,338.7-273.7c83-91.5,145.2-171,233-258c79.3-78.5,161.6-145.6,239.5-187.6c111.5-60.1,256.5-67.5,384.5-39.8
	c136.9,29.7,246.3,125.2,257.5,228.5c13.4,124.2-48.9,218.4-145.3,208c-54.8-5.9-98.9-33-109.7-82.4
	c-10.1-46.4,16.9-92.8,56.4-104.4c42.3-12.4,75.7-4.2,97.8,29c18.6,28.1-0.3,70.3-23.3,71.9c-20.9,1.4-32.3-16.5-28.5-32.5"/>
<path class="st17" d="M1790.4,546.3"/>
<path class="st18" d="M1842.8,309.7c35.5,45,71.4,139.4,58.9,217.6c-6.2,38.8-24.1,76.4-29.1,123.3c-4.7,43.8,10.2,75.7,52.8,82.8
	c31.7,5.3,65.8-15.6,63.2-44.9"/>
<path class="st13" d="M1850.9,582.8c-23.8,49.8-93.1,73-151.4,35.3c-34.1-22.1-42.6-72.2-12.9-100.9"/>
<path class="st19" d="M1332,696.2c49.5,42.4,67.8,70.8,97.9,128.6c15.3,29.5,24.9,78.4,40.6,111c17.1,35.5,40.5,52.6,88.4,53.5"/>
<path class="st20" d="M1965.9,332.3c27.3,33.5,52.8,71,71.4,105.1c13.6,25,37.6,55.2,54.5,68.7c18.4,14.7,42.1,17.6,54.9,6.5
	c16.8-14.5,13.2-34-7.4-36.8"/>
<path class="st5" d="M1094.2,637.9c120.2-34.4,182.7,0.9,282.5,34.4c73.1,24.5,132.6,6.1,151.1-44.2"/>
<path class="st13" d="M1129.9,472.2"/>
<path class="st21" d="M1306.5,995.8c-29,22.1-78.9,13.1-99.4,2.5c-20.5-10.6-31.1-39.2-19.2-62.2c11.9-22.9,34.4-24.1,48.5-7.5"/>
<path class="st13" d="M1453.6,978.5c-7,51-0.7,87.2,13.4,126.8c14.3,40,45.1,58.9,76.7,56.7c21.5-1.5,32.3-11.6,37.2-26.1"/>
<path class="st5" d="M1411.6,922.8c-10.5,32.7-31.1,62.9-55.6,86.7c-28.1,27.3-58.9,38.8-80.9,44.2c-24.8,6-48.8,25.1-57.8,40.9
	c-9.9,17.5-12.1,57.3,3.2,79.6"/>
<path class="st12" d="M768.2,778.6C869.8,702.5,971.7,580,1080,475c80.1-77.6,175.7-130.3,275.8-128.1c59,1.3,91.7,52.9,78.8,94.6
	c-13.8,44.4-61.9,54.5-97.7,40.9c-38.8-14.7-38.8-63.8-9.1-85.1"/>
<path class="st3" d="M915.6,651.8c62.8-54,125.1-134.6,180.9-178.4c63.6-49.9,137.1-40.9,136.3,19.6c-0.6,42.9-44.6,62.5-74.3,52.4
	c-28.9-9.8-23.8-49.7-0.2-58.1"/>
<path class="st3" d="M1174,395.9c114.2-105.7,220.2-45.2,309.1-49.8c49.7-2.6,75.3-27.9,73.8-73.7"/>
<path class="st1" d="M565.4,990.5c81.8-22.9,185-17.2,252,15.8c38.6,19,74.5,46.5,121.3,70.9c29.7,15.5,61.9,21.2,93.3,20.5
	c35.5-0.8,61.9-18,68.6-49.9"/>
<path class="st3" d="M881.8,1312.1c-29.7,39.3-94.2,62.2-151.7,65.5c-35.5,2.1-72.5-6.6-107.5-13.3c-38.3-7.3-69.9,36.4-37.6,68.5"
	/>
</svg>
