<?xml version="1.0" encoding="utf-8"?>
<!-- Generator: Adobe Illustrator 24.1.2, SVG Export Plug-In . SVG Version: 6.00 Build 0)  -->
<svg version="1.1" id="Layer_1" xmlns="http://www.w3.org/2000/svg" xmlns:xlink="http://www.w3.org/1999/xlink" x="0px" y="0px"
	 viewBox="0 0 1920 1080" style="enable-background:new 0 0 1920 1080;" xml:space="preserve">
<style type="text/css">
	.st0{fill:none;stroke:#000000;stroke-miterlimit:10;}
</style>
<path class="st0" d="M472.3,412.2c23.4-32.6,51.6-64.1,79.4-94.3c25.8-28,56.8-67.3,75.3-97.8c30.3-49.7,21.9-104.4-10.5-127.7
	c-29.5-21.3-74.8-15.2-89.1,4.5c-13.2,18.1-11.3,41.4-1.1,54.6c9.4,12.3,32.3,18.4,48.6,6.7c15.5-11.2,18.9-33.7,0.7-42.7"/>
<path class="st0" d="M-100,522.5c48.6,54.2,100.2,88.1,172.7,93.6c75.3,5.7,141.9-11.7,214.4-60.5c74.3-50,122.4-127.2,136.4-192
	c16.1-74.3-14-141.1-86.4-161.9c-62.6-18-115.3-0.2-146.5,38.9c-27.4,34.4-41.3,104.9,16.7,138.4c38,22,87.5,6.2,111.4-23.5
	c19.4-24,19.1-58.1,8.2-74.5c-10.2-15.2-26-20.6-37.2-19.9c-9.8,0.6-24.5,6.7-25.6,18"/>
<path class="st0" d="M-91.4,533.5c49.2,45.2,113.5,75.1,179.4,64.3c20.8-3.4,47-14.6,63.4-27.9c22.4-18.1,35.3-47.7,33.4-77.7
	c-2-32.2-24.3-60.5-48.1-69.6c-20.7-7.9-48.6-6-66.1,11.5c-19.3,19.2-22.9,40.9-13.7,61.7c7.6,17.3,25.5,24.5,43.4,20.9
	c21.4-4.3,32.9-26.4,23.6-40"/>
<path class="st0" d="M-97.4,527.7C-47.8,589,64.3,651.1,155.4,659.8c90.2,8.6,175.1-24.5,223.4-28.3c46.4-3.6,94.2,9.8,114.9,35.2
	s32.8,49.1,32.5,72.2c-0.4,32.9-12.6,59.5-36.2,77.8c-20,15.6-50.8,23.2-80.2,17.2c-27.3-5.6-51.1-20.8-63.2-40.1
	c-17-27.1-11-64.3,6.5-84.4c14.6-16.8,34.5-23.6,54.9-17.7c24.2,7,39.1,31.7,18.4,52.4"/>
<path class="st0" d="M450.7,647.3c31.4,17.1,47.6,35.2,54.3,64.7c4.2,18.6-2.6,43.1-17.2,59.6c-13.4,15.3-41.5,22.4-58.3,4.7"/>
<path class="st0" d="M335.5,499.1c37.9-37.8,53.7-73.6,53.7-98.8c0-14.2-6-32.1-23.8-33.2c-10.5-0.6-17.9,8.4-18.1,19"/>
<path class="st0" d="M267.6,222.9c-24.2,7.1-50,24.2-62.1,56.9c-9.7,26.3-1.3,46.6,10.4,59.9c13.1,15,31.9,16.5,46.5,7
	c12.6-8.2,12.4-29.7-5.2-31.9"/>
<path class="st0" d="M292.2,620.6c35.8-9.1,77.4-27.9,114-53c46.5-31.9,66.1-52.8,104.6-82.8s85.5-63.8,134.8-69.2
	c52.4-5.7,106.8,12.3,146.5,62.8c17.7,22.5,26,56.7,21.7,87.6c-3.6,25.9-16.7,49-35.9,63.4c-27.7,20.9-70.4,26.9-95.8,7.5
	c-24.4-18.6-24.9-52.1-6.8-65.8c13-9.8,32.1-2.5,29.4,11.8"/>
<path class="st0" d="M398.7,572.8c44.6-25.9,77.8-61.8,127.2-78.3c29.2-9.8,54.2-0.2,63.5,17.8c7,13.5,1.6,35.9-22.5,43.9"/>
<path class="st0" d="M646.3,419.6c46.5-4.3,87.2,12.2,114.4,37.9c24.7,23.4,30.7,76.5,11.2,100.1"/>
<path class="st0" d="M278.1,446.5c17.8-5.7,31.5-0.1,37.2,13.3c6.4,14.9,1.9,31.1-5.9,45.3c-9.3,16.9-26.9,30.2-42.7,41.4
	c-15.8,11.2-28.1,22.1-41.9,35.7"/>
<path class="st0" d="M917.5,179c29.3,10.7,47.4,13.5,68.8,23.9c32.4,15.7,48.1,42.1,51.6,66.6c3.3,22.9-11.6,39.8-38.1,36.1"/>
<path class="st0" d="M622.5,304.8c26.8-24.2,80.9-60.8,124.5-75.6c42.5-14.4,81.7-1.8,100.8,25.1c17.7,24.8,15,69.3-20.2,81.2
	c-22.8,7.7-48-7.3-50.5-25.7c-3.3-24.3,14.8-38.1,33.4-24.8"/>
<path class="st0" d="M920,140.8c52.2,0.7,99.1,12.9,134.9,40.7c26.6,20.7,57.3,58.8,71,87.2c20.7,42.9,38.1,94.4,79.3,110.8
	c40.6,16.2,76.5,5.5,98.9-24.5c12.9-17.3,19.6-53.7,4.8-74.3c-12.4-17.2-30-19.4-43.4-16.5c-10.2,2.2-17.4,11.6-17.4,22.5
	c0,13.1,14.3,23.1,27.2,17.4"/>
<path class="st0" d="M977.5,147c27.6,2.4,70.1,15.8,93,36.1c13.4,11.9,30.8,28,41,34.6c14.3,9.2,35.4,12.2,47.8-0.2"/>
<path class="st0" d="M-100.5,548.2c21.6,38.5,69,80.7,123.3,111.7c27.6,15.7,55.7,26.1,86.1,33.5c24.4,5.9,52.2,8.7,70.8,17.5
	c17.5,8.3,35.9,21.9,44.5,38.4c8.5,16.4,9.5,44.8-5.1,62.1c-14.8,17.6-38.1,21.4-57.7,8.1c-14.6-10-18.9-33.8-5.6-48.8
	c5.9-6.7,15.1-8,22.5-5.1c7.4,2.9,12.6,9.4,11.4,18.3"/>
<path class="st0" d="M261,749.6"/>
<path class="st0" d="M170.3,699c17.8,5,52.2,32.9,62.9,47.9c9.5,13.3,14.4,37.1,20.5,47.7c11,18.8,31.5,26.3,52.9,17.4"/>
<path class="st0" d="M14.2,655.8c20.1,14.9,43.8,23.3,65.6,31.6c19.7,7.5,33.6,13.3,43.9,21.1c13.7,10.4,9.4,31.3-8.4,37.1
	c-11.2,3.7-31-2.3-29-20"/>
<path class="st0" d="M193.8,724.8c15.4,10.3,24.9,22.7,26.4,38.4c1.1,12.6-3.6,23.4-20.3,26.7"/>
<path class="st0" d="M377,811.1c-17.2-14.1-27-27.1-31.5-45.7c-5.5-23,6.9-40.1,12.4-43.6c6.6-4.2,18-4.8,24.8-0.7
	c9.1,5.5,11.2,15,7.4,22.9"/>
<path class="st0" d="M470.7,421.8c11.1-28,26.6-45.7,42.2-66.1c15.6-20.4,30.6-43.6,29.8-69.2c-0.2-7.4-1.9-15-6.3-21.1
	c-4.4-6-11.7-10.2-19.1-9.4"/>
<path class="st0" d="M809,226.6c10.9-2.2,22.7,0.7,31.7,7.8c12.2,9.5,19.5,26,33.4,32.1c12.9,5.7,28.1,0.4,38.5-9.5"/>
<path class="st0" d="M278.1,380.8c35.6-19.4,44.8-54.9,33.2-73.1c-6.4-10.1-20.7-11-26.9-4.8"/>
<path class="st0" d="M453.1,379.6c16.3-32.4,21.9-76.2,13.3-106.2c-8.7-30.8-17.8-47.9-37.7-70.9c-18.9-21.7-38.6-32.6-44.2-59.4
	c-4.3-20.4,4.2-42.1,23.4-48.6c19.7-6.6,38.1,2.9,36.8,20.1"/>
<path class="st0" d="M467.2,276.3c-2-38.1-12.1-65.9-26.5-89.6c-11.9-19.6-9.9-40.1,7.7-42.4"/>
<path class="st0" d="M186.9,533.6c7.6-19.7,11.8-42.9,11.8-60c0-13.8,7.3-26.1,18.4-30.5c13.7-5.4,27,2.2,28.3,15.2
	c1.1,11.4-9.2,26.1-20.7,22.9"/>
<path class="st0" d="M107.5,409.8c-24.3-0.5-45.5,14.5-57.2,33.8c-11,18.1-18.1,27.6-37.2,26.2"/>
<path class="st0" d="M375.3,621.9c31.5-10,73.1-6.6,111.5,16.4c25,15,39.3,40,67.9,50.8c26.5,9.9,52.2-11.4,55-35
	c3.4-28-23.6-50-45.7-41.5"/>
<path class="st0" d="M241.4,188.3c-26.7,7.1-45.7,14.8-64.2,35.6c-8.8,9.9-21,32.4-28.7,53.4c-7.4,20.3-23,38.8-41.6,39.2"/>
<path class="st0" d="M674.1,189.2c26.7-25.7,46.2-39.1,70.9-48.3c22.8-8.5,63.8-19.8,88.1-19.4c31.1,0.5,57.2-3.6,72.1-17.2
	c16.2-14.8,12.4-38.1-6.2-47.2"/>
<path class="st0" d="M841.9,103.9"/>
<path class="st0" d="M520.4,445.5c29.2-27.1,68.1-54.8,107.7-66.7c40-12,95.6-14.1,151.7,18.3c69.3,40,93.7,121.7,109.9,169
	c18.4,53.8,54.4,67.9,84.2,49.1c23.8-15.1,22.9-52.3-0.6-62.1c-18.6-7.8-34.6,8.6-34.3,20.3"/>
<path class="st0" d="M653.6,159.7c3.8-21.9-2.9-42.4-14.8-57.7C629.3,89.8,619,67.4,616,51.5c-3.3-17.6,6.7-31,26.2-31"/>
<path class="st0" d="M702.9,164.4c30.5-32.7,80-48.2,107.1-49.9c26.2-1.6,41.5-13.5,50-33"/>
<g>
	<path class="st0" d="M-101.4,523.1c21.9,26.2,69.8,61.9,99.3,76.8c97.9,49.6,188.6,39.7,255.4,13.4
		C343.6,577.9,387,522.6,448.7,454c47.9-53.3,83.8-99.6,134.4-150.3c45.7-45.7,93.2-84.8,138.2-109.3c64.3-35,148-39.3,221.9-23.2
		c79,17.3,137.2,71.2,142.4,131.5c5.5,62.9-11.7,123-57.1,139.1c-29.9,10.6-62.6,4.9-80.7-18.3c-17-21.8-11.1-53.5,0.3-67
		c15.2-18.1,38.4-20.5,51.1-10.5c12.1,9.5,15.9,24.5,7,35.3c-6,7.3-23.7,8.6-28,0"/>
	<path class="st0" d="M1016.9,374.2"/>
	<path class="st0" d="M1062.2,227.3c22.9,24.1,42.5,75.4,39.7,121.4c-1.4,22.9-5.1,47.2-3.8,74.7c1,20.7,7.3,41.3,26.1,48.9
		c17.2,7,31.7-0.3,35.3-19.1"/>
	<path class="st0" d="M1025.3,434.8c-33.4,13.8-71.5-16.3-60.1-47.4"/>
</g>
<path class="st0" d="M817.1,499.4c11,31,9,66.9-6.2,95.8c-14.3,27.2-30,41.5-58.1,55.8c-21.9,11.1-28.6,36.2-19.4,63"/>
<path class="st0" d="M754.6,387.8c19.2,2.6,37.5,10.9,52.2,23.5c11.8,10.2,22,22.1,31.7,34.4c16.9,21.4,35,32.6,61.8,32.5"/>
<path class="st0" d="M1139,251.4c9.3,9.8,26.7,36,37.6,55.8c13.3,24,33.3,41.1,52.4,46.5c20.3,5.7,35-12.4,27.9-29.3"/>
</svg>
