<?xml version="1.0" encoding="utf-8"?>
<!-- Generator: Adobe Illustrator 24.1.2, SVG Export Plug-In . SVG Version: 6.00 Build 0)  -->
<svg version="1.0" id="Layer_1" xmlns="http://www.w3.org/2000/svg" xmlns:xlink="http://www.w3.org/1999/xlink" x="0px" y="0px"
	 viewBox="0 0 1920 1080" style="enable-background:new 0 0 1920 1080;" xml:space="preserve">
<style type="text/css">
	.st0{fill:none;stroke:#000000;stroke-width:1.1839;stroke-miterlimit:10;}
	.st1{fill:none;stroke:#000000;stroke-width:1.5019;stroke-miterlimit:10;}
	.st2{fill:none;stroke:#000000;stroke-width:1.1264;stroke-miterlimit:10;}
	.st3{fill:none;stroke:#000000;stroke-width:1.0994;stroke-miterlimit:10;}
	.st4{fill:none;stroke:#000000;stroke-width:0.8456;stroke-miterlimit:10;}
	.st5{fill:none;stroke:#000000;stroke-width:0.7107;stroke-miterlimit:10;}
	.st6{fill:none;stroke:#000000;stroke-width:1.5486;stroke-miterlimit:10;}
	.st7{fill:none;stroke:#000000;stroke-width:0.9332;stroke-miterlimit:10;}
	.st8{fill:none;stroke:#000000;stroke-width:0.9304;stroke-miterlimit:10;}
	.st9{fill:none;stroke:#000000;stroke-width:1.0147;stroke-miterlimit:10;}
	.st10{fill:none;stroke:#000000;stroke-width:0.6342;stroke-miterlimit:10;}
	.st11{fill:none;stroke:#000000;stroke-width:0.4228;stroke-miterlimit:10;}
	.st12{fill:none;stroke:#000000;stroke-width:0.758;stroke-miterlimit:10;}
	.st13{fill:none;stroke:#000000;stroke-width:1.353;stroke-miterlimit:10;}
	.st14{fill:none;stroke:#000000;stroke-width:0.9302;stroke-miterlimit:10;}
	.st15{fill:none;stroke:#000000;stroke-width:0.5919;stroke-miterlimit:10;}
	.st16{fill:none;stroke:#000000;stroke-width:0.7397;stroke-miterlimit:10;}
	.st17{fill:none;stroke:#000000;stroke-width:1.2382;stroke-miterlimit:10;}
	.st18{fill:none;stroke:#000000;stroke-width:0.9639;stroke-miterlimit:10;}
	.st19{fill:none;stroke:#000000;stroke-width:1.6912;stroke-miterlimit:10;}
	.st20{fill:none;stroke:#000000;stroke-width:1.1253;stroke-miterlimit:10;}
	.st21{fill:none;stroke:#000000;stroke-width:0.908;stroke-miterlimit:10;}
	.st22{fill:none;stroke:#000000;stroke-width:0.6765;stroke-miterlimit:10;}
	.st23{fill:none;stroke:#000000;stroke-width:0.7611;stroke-miterlimit:10;}
	.st24{fill:none;stroke:#000000;stroke-width:1.4659;stroke-miterlimit:10;}
</style>
<path class="st0" d="M695.5,544.1c37.4-54.8,84.7-107,126.1-149.7c38.5-39.7,76.1-93.6,104.1-137c45.7-70.8,35.2-150.1-11.3-184.8
	C871.9,41,804.7,65.2,787,95.7c-16.2,28.1-9.9,61.2,7,78.7c15.6,16.2,49.7,21.4,71.5,1.9c20.8-18.5,22.2-51.4-5.8-61.5"/>
<path class="st1" d="M-140.6,670.8C-71.4,750.6,0,798.7,105.1,812.3c109.2,14.1,207.2-12.4,314.6-80.7c110-70,184.7-188,205.5-275.1
	c23.7-99.8-18.7-196.1-112.2-223.9c-80.8-24-145-9.6-184.8,40.2c-35,43.7-48.2,135.9,23,181c46.7,29.5,108.8,10.5,139.4-27.2
	c24.7-30.5,25.3-74.7,12.2-96.1c-12.3-20-31.9-27.4-45.8-26.9c-12.3,0.5-30.6,8-32.3,22.6"/>
<path class="st2" d="M-136.8,666.2c26.2,24.8,64.6,61.3,95.9,78.3c53.1,28.7,115.3,43,175.9,34.5c30.5-4.3,66.9-20.8,91.3-39.4
	c33.2-25.5,52.9-67.7,51.1-111.2c-2-46.5-33.6-88.2-68-102c-30-12-70.7-10.2-96.8,14.5c-28.7,27.2-34.6,58.4-21.9,88.7
	c10.6,25.3,36.5,36.2,62.6,31.6c31.4-5.5,48.8-37.2,35.6-57.1"/>
<path class="st1" d="M-151.5,680.9c62.2,95.1,216.3,193.6,375.8,197c132.2,2.8,269.7-22.9,339.9-26.7
	c67.4-3.6,142.2,30.8,168.9,63.8c26.7,33,42.1,63.6,41.2,93.1c-1.4,42-19.9,81.5-51.6,104.2c-27,19.3-70.6,30.8-109.5,22.3
	c-36-7.9-68.3-31.3-83.1-56.8c-18.3-31.6-12.9-84.7,9.1-111.4c18.4-22.3,52.6-30.1,79.6-22c31.9,9.7,50.9,41.6,22.9,67.4"/>
<path class="st3" d="M644.6,870.4c49.3,14.3,82.6,50.9,95.7,91.7c7.5,23.2,6.1,56.4-12,78.5c-20.6,25.1-57.7,27.6-75.3,9"/>
<path class="st4" d="M492,651.4c56.5-53.4,80.5-104.6,81.3-141.1c0.4-20.5-7.7-46.6-33.7-48.7c-15.3-1.2-26.4,11.6-27,26.9"/>
<path class="st5" d="M431.3,256.3c-36.2,6.7-69.1,23.1-83.3,65.6c-10.1,30.3-4.9,61.6,9.3,79.1c15.9,19.7,45,24.1,63.4,12.3
	c15.9-10.2,16.2-38.1-5.7-41.4"/>
<path class="st6" d="M424.2,825.7c52.4-11.4,113.7-36,167.8-69.4c68.7-42.5,97.9-70.6,155-110.8c57.1-40.1,126.9-81.8,198.6-91.1
	c100.4-13,205.4,33.8,236.9,128.1c11.8,35.3,16.2,86.7-7.3,131.5c-21.7,41.4-65.1,70.1-121.3,66.4c-46.8-3.1-77.4-42.8-75.4-81.2
	c1.9-36.5,35.2-65.8,67.1-64.6c47.1,1.7,63.1,51.5,33.8,72.2"/>
<path class="st7" d="M586.2,764.3c65.9-36,115.4-86.8,187.9-109.1c42.9-13.2,79,1.4,92.1,27.7c9.8,19.7,1.2,51.9-34.1,62.7"/>
<path class="st4" d="M328,768c22.9-13.3,45.6-23.6,68.9-39.2c23.3-15.7,51.4-43.5,62.9-69.4c11.2-25.1,14.6-51.9,2.4-74
	c-10.1-18.5-37.4-21.8-52.3-11.8"/>
<path class="st8" d="M1309.1,195.3c36.1,5,77.2,13.4,107.2,24.2c33.9,12.1,59.8,37.1,65.1,64.5c4.5,23.7-10.3,54.4-43.6,55.4"/>
<path class="st9" d="M1300.7,144.4c71.9-6.6,157.9,15.1,217.9,46.8c43.3,22.9,93.6,73.7,118.6,112c37.8,57.7,81.1,122.2,144.1,136.7
	c69.7,16,139.7-8.6,173-64c23.9-39.7,18.6-106.1-38.4-127.9c-33.5-12.8-55.4-7.1-74.1,5c-14.3,9.3-18.7,29.1-11.1,46.3
	c9.1,20.7,38,28.6,50.6,6.7"/>
<path class="st4" d="M1395.8,147.7c47.1,4.2,97,19.2,133,40.4c28.6,16.8,58.1,39.6,84.2,50.5c22.8,9.6,53,8.4,58-14.4"/>
<path class="st4" d="M-157,686.4c25.1,44.5,103.2,115.7,166.5,152.3c40,23.1,77.7,44.5,120.9,59c34.7,11.6,74.8,19,100.8,34
	c24.4,14.1,49.4,36,59.8,60.9c10.3,24.7,4.6,62.6-15.2,88.8c-27.2,36-77.7,41.9-113,14.9c-20.4-15.6-33.3-56.4-11.8-79.1
	c15.1-16,38.4-17.1,53.9-8.4c13.5,7.6,15.1,26.1,2.5,40.4"/>
<path class="st4" d="M340.1,1006.8"/>
<path class="st4" d="M241.1,926.3c37.9,16,71.5,55.5,70.7,101.8c-0.8,42.9-19.3,56.3-21.9,88.4c-3.4,41.2,37.9,64,66.4,46.3"/>
<path class="st10" d="M-2.5,831.8c27.4,23.9,60.7,39,91.3,53.7c27.7,13.3,47.2,23.4,61.2,35.8c18.6,16.6,9.8,46.2-16.8,52.4
	c-16.8,3.9-44.7-7.1-39.6-32.3"/>
<path class="st11" d="M245.6,962.8c21.1,16.8,33.4,35.8,33.5,58.6c0.1,18.3-8.5,33.6-33.7,41.2"/>
<path class="st12" d="M608.4,1125c-28.8-5.9-47.2-21.5-59.8-42.4c-15.6-25.9-6.4-51.8-0.8-58.2c6.8-7.8,21-13.1,31-10.8
	c13.5,3.1,19.8,13.8,18.1,25"/>
<path class="st4" d="M676.5,564.7c27-44,56.5-85.5,78.5-115.1c22.1-29.9,46-62,45.6-99.1c-0.1-10.7-2.3-21.8-8.5-30.6
	c-6.2-8.9-16.8-15.1-27.6-14.2"/>
<path class="st5" d="M434.6,451.6c58.7-25.5,69.5-76.6,53.1-97.8c-9.4-12.1-31-10.3-38.7,3.5"/>
<path class="st13" d="M667.2,482.4c24.7-46.3,34.2-109.4,22.7-153.1c-11.8-44.8-24.4-69.8-52.8-103.5c-26.9-32-74.2-54.4-81.6-93.4
	c-5.6-29.5,10.4-56.7,39.1-63.8c29.4-7.4,55.1,8.5,51.3,33"/>
<path class="st14" d="M698.1,349.7c0-58.1-25.2-106-52.8-135.9c-26.3-28.4-22.9-72.9,20.8-67.7"/>
<path class="st15" d="M279.3,688.1c11.7-28.2,18.5-61.6,19-86.4c0.4-19.9,11.5-37.5,27.8-43.5c20.1-7.4,39.3,4.1,40.8,22.9
	c1.3,16.4-14.2,37.3-30.8,32.4"/>
<path class="st15" d="M167.3,506.8c-35.4-1.4-66.8,19.6-84.4,47.1c-16.5,25.8-27.3,39.4-55,36.7"/>
<path class="st16" d="M427.1,208.3c-27.8-2.5-75.7,14.3-101,34.5c-22.5,18-42.9,54.7-49.7,81.6c-7.5,29.9-29.5,48-56.4,44.6"/>
<path class="st4" d="M995.4,214.2c39.7-36.3,72.8-56.1,108.4-70.7c32.8-13.5,84.2-21.9,126.2-21.9c45.4,0,89.8-9.5,111.9-28.6
	c24.1-20.8,13.5-58.9-14.4-62.5"/>
<path class="st4" d="M1242.7,96.2"/>
<path class="st17" d="M985.4,515.4c98.8-9.8,166.5,22.6,208.3,58c36.3,30.8,56.4,69.7,67.6,133.8c12.8,73.5-13.7,130.3-10.1,192.2
	c3.4,59.5,43.3,105.9,94.1,114.8c51.4,8.9,97.1-28.2,100.5-76.4c3-42.9-35.3-85-66.5-75.7c-26.8,8-39.6,32.8-28.6,52.2"/>
<path class="st18" d="M949.9,222.9c15.8-30,18.8-53.9,15.3-87.2c-2.3-22.4-13.4-43.2-18.1-57.6c-8.1-24.6,11.7-36.8,22.7-36.6"/>
<path class="st4" d="M1037.3,174.7c32.8-32,80.8-53.9,135.8-60.7c38-4.8,73.8-13.3,74-46.2"/>
<path class="st19" d="M-147,674.7c31.7,39.9,93.1,99,145.3,124.9c128.8,64,274.6,55.3,372.7,19.4c132.8-48.5,195.4-132,287.4-229.3
	c71.4-75.5,125.3-141.3,200.7-212.9c68.1-64.7,138.6-119.6,204.9-153.6c94.9-48.6,217-52.2,324.3-26.5
	c114.7,27.4,205,109.7,212.5,196.9c9.1,104.7-46.6,179.6-128,174.5c-53.9-3.4-85-32-88.8-73.4c-3.7-39.8,15.9-77.8,49.3-86.8
	c35.8-9.7,63.8-2.2,81.8,26.2c15.2,23.9,2.4,61.7-26.8,62.6c-17.6,0.6-26.9-14.5-23.4-27.8"/>
<path class="st19" d="M1517.5,485.8"/>
<path class="st20" d="M1537.4,264.1c66.9,58.7,94.7,98.8,77.1,211.3c-7.5,47.9-30.6,70.5-32.7,110.1c-1.5,28.9,19,54.6,45.1,55.1
	c38.1,0.8,54.6-35.9,40.8-58.1"/>
<path class="st21" d="M1147.9,539.2c48.1,20.5,100.2,65.5,116.3,110.3c15.3,42.7,18.4,80.1,22.2,125.7c2.7,32.7,24.2,57,55.8,52
	c29.7-4.7,38.2-32.7,32.3-53.2c-5.3-18.3-24.9-31-46.5-16.6"/>
<path class="st22" d="M1654.2,318.6c29.5,36.2,52.7,60.8,69,74.9c18.1,15.7,49.8,27.6,67.9,28.8c19.8,1.3,37.4-9.7,40.7-26.1
	c3.9-19.8-14.8-34-30.3-25.3"/>
<path class="st6" d="M1122,527.4c52.3,10.1,113.3,53.2,142.1,94.7c15.2,22,31.3,42.2,59.4,54.2"/>
<path class="st14" d="M963,411.6"/>
<path class="st23" d="M1116.4,857.9c-33.1,14.4-74.3,11-89.5-3.8c-13.9-13.6-25.5-33.5-15.1-52.7c10.4-19.1,29.3-19.7,41-5.4"/>
<path class="st14" d="M1265.6,816.6c-5.8,42.9-7.2,80.5,4.8,113.8c12.1,33.7,38.1,48.2,67.1,45.2c26.9-2.8,35-19,32.5-33.7"/>
<path class="st6" d="M1194.2,781.7c-2.8,35.3-18.4,68.3-42.3,84.5c-27.2,18.5-46.8,27.2-75.6,35.8c-20.6,6.2-37.4,16-45.3,32.7
	c-7.3,15.3-10.3,37.4,2.2,56.4"/>
<path class="st13" d="M653.1,662.8C740,600.6,829.6,501.1,921,412.9c51.1-49.3,106-84.5,157.2-91.4c56.4-7.6,122.8-0.9,156.5,33.7
	c32.8,33.7,31.1,83.3-5.9,111.1c-31.4,23.5-80.4,12.2-95.8-16.1c-17.8-32.7,15.9-73.1,42.8-68.1"/>
<path class="st4" d="M779.4,558.8c53.8-44.3,107.7-111,155.4-146.8c54.4-40.9,109.2-46.2,127.7-1.6"/>
<path class="st4" d="M982.6,349.7c108.9-78.7,207.5-33.8,279.8-38c41.8-2.4,63.9-22.1,63.4-60.7"/>
<path class="st24" d="M188.5,881.5c68,11,123.9,9.4,196,7c61-2,85,21,83,70"/>
<path class="st12" d="M747.5,1097.4c-20.6,34.5-67.6,52.7-111.7,54.2c-27.2,1-55.4-6.1-82-11.6c-29.2-6.1-54,25.9-29.9,50.3"/>
</svg>
