<svg xmlns="http://www.w3.org/2000/svg" viewBox="0 0 306 344.35"><g id="Layer_2" data-name="Layer 2"><g id="Layer_1-2" data-name="Layer 1"><path d="M302.11,86.09a27.11,27.11,0,0,0-9.36-9.9l-126.5-73C159-1,147-1,139.75,3.16l-126.5,73C6,80.4,0,90.72,0,99.14V245.21a27.11,27.11,0,0,0,3.89,13,27.11,27.11,0,0,0,9.36,9.9l126.5,73c7.29,4.21,19.21,4.21,26.5,0l126.5-73a29.39,29.39,0,0,0,13.25-23V99.14A27.11,27.11,0,0,0,302.11,86.09ZM263.5,177.84V166.51h11.33V155.18h11.34v11.33H297.5v11.33H286.17v11.34H274.83V177.84Zm-42.5,0V166.51h11.33V155.18h11.34v11.33H255v11.33H243.67v11.34H232.33V177.84Zm20.33,45.36a102,102,0,1,1,0-102.06l-28.28,16.37-15.87,9.16A51,51,0,0,0,102,172.17a51,51,0,0,0,51,51,51.21,51.21,0,0,0,44.18-25.49L220.29,211Z"/></g></g></svg>