<svg width="92" height="92" viewBox="0 0 92 92" fill="none" xmlns="http://www.w3.org/2000/svg">
<path d="M90.1598 41.8499L49.9998 1.72993C48.8897 0.620367 47.3844 -0.00292969 45.8148 -0.00292969C44.2453 -0.00292969 42.7399 0.620367 41.6298 1.72993L33.2998 10.0699L43.8998 20.6299C45.1509 20.1898 46.5014 20.1141 47.7939 20.4118C49.0863 20.7094 50.2676 21.3681 51.2002 22.3112C52.1328 23.2542 52.7783 24.4428 53.0615 25.7386C53.3447 27.0343 53.2539 28.3838 52.7998 29.6299L62.9998 39.7799C64.5115 39.2616 66.1551 39.276 67.6574 39.821C69.1597 40.3659 70.4303 41.4086 71.2581 42.7756C72.0859 44.1426 72.421 45.7517 72.2078 47.3355C71.9946 48.9193 71.2458 50.3825 70.0859 51.4818C68.9261 52.5812 67.425 53.2507 65.832 53.3789C64.239 53.5071 62.6502 53.0864 61.3294 52.1867C60.0086 51.2869 59.0355 49.9624 58.5717 48.433C58.1079 46.9037 58.1813 45.2617 58.7798 43.7799L49.2798 34.2799V59.2799C49.9701 59.6156 50.599 60.0652 51.1398 60.6099C52.1838 61.6859 52.8548 63.0686 53.054 64.5545C53.2532 66.0404 52.9701 67.551 52.2463 68.8639C51.5225 70.1769 50.3963 71.2227 49.0336 71.8476C47.6708 72.4724 46.1434 72.6432 44.6762 72.3349C43.2091 72.0265 41.8797 71.2552 40.8838 70.1346C39.8879 69.014 39.278 67.6033 39.1441 66.1101C39.0101 64.6169 39.3591 63.1201 40.1396 61.8401C40.9201 60.5601 42.091 59.5645 43.4798 58.9999V33.8099C42.6155 33.46 41.8326 32.9357 41.1798 32.2699C40.188 31.2861 39.5133 30.0281 39.2424 28.6576C38.9716 27.2872 39.1169 25.8671 39.6598 24.5799L29.2398 14.1599L1.72981 41.6599C0.61964 42.7718 -0.00390625 44.2787 -0.00390625 45.8499C-0.00390625 47.4211 0.61964 48.9281 1.72981 50.0399L41.8498 90.1499C42.9599 91.2595 44.4653 91.8828 46.0348 91.8828C47.6044 91.8828 49.1097 91.2595 50.2198 90.1499L90.1598 50.2199C91.2694 49.1098 91.8927 47.6045 91.8927 46.0349C91.8927 44.4654 91.2694 42.9601 90.1598 41.8499Z" fill="#231F20"/>
</svg>
