<svg xmlns="http://www.w3.org/2000/svg" viewBox="0 0 134 134"><defs><style>.cls-1{fill:#231f20;}</style></defs><g id="Layer_2" data-name="Layer 2"><g id="Layer_2-2" data-name="Layer 2"><path class="cls-1" d="M67,0a67,67,0,1,0,67,67A67,67,0,0,0,67,0ZM33.86,36.5h66.75A3,3,0,0,1,102.22,42L68.64,63.4a3,3,0,0,1-3.25,0C49.66,53.17,39.22,46.45,32.25,42A3,3,0,0,1,33.86,36.5Zm79.64,63h-93a3,3,0,0,1-3-3V45.27a3,3,0,0,1,4.59-2.55c9.79,6.14,29.8,19,43.28,27.8a3,3,0,0,0,3.24,0L111.89,43a3,3,0,0,1,4.61,2.53v51A3,3,0,0,1,113.5,99.5Z"/></g></g></svg>