<svg xmlns="http://www.w3.org/2000/svg" viewBox="0 0 1287.57 562.5"><g id="Layer_2" data-name="Layer 2"><g id="svg2"><path id="path14" d="M184.38,315A93.62,93.62,0,0,0,199.19,346,75.06,75.06,0,0,0,225.08,368q15.81,8.35,37.67,8.34T300.42,368A75.19,75.19,0,0,0,326.32,346,93.8,93.8,0,0,0,341.12,315a131.32,131.32,0,0,0,0-69.71,94,94,0,0,0-14.8-30.93,75.19,75.19,0,0,0-25.9-22.09q-15.81-8.34-37.67-8.35t-37.66,8.35a75,75,0,0,0-25.9,22.09,93.59,93.59,0,0,0-14.8,30.93,131.32,131.32,0,0,0,0,69.71Zm-29.29-80.88a114.88,114.88,0,0,1,21.66-39.07,105.32,105.32,0,0,1,35.95-27.14q21.5-10.14,50.05-10.14t50.05,10.14a105.32,105.32,0,0,1,35.95,27.14,114.88,114.88,0,0,1,21.66,39.07,149.57,149.57,0,0,1,0,91.88,115,115,0,0,1-21.66,39.08,103.65,103.65,0,0,1-35.95,27q-21.49,10-50.05,10t-50.05-10a103.52,103.52,0,0,1-35.94-27A114.87,114.87,0,0,1,155.09,326a149.77,149.77,0,0,1,0-91.88"/><path id="path16" d="M514.59,301a54.44,54.44,0,0,0-8.52-17.7A41.55,41.55,0,0,0,491.38,271q-9-4.6-21-4.6-12.64,0-21.45,4.89a42.67,42.67,0,0,0-14.4,12.8,52.67,52.67,0,0,0-8.08,18,85.51,85.51,0,0,0,.15,41.57,51.72,51.72,0,0,0,8.37,18A42.45,42.45,0,0,0,449.8,374.1q9.12,4.75,22,4.75T493.43,374a39.85,39.85,0,0,0,14-12.95A55.79,55.79,0,0,0,515,342.6a96.36,96.36,0,0,0,2.35-21.3A74.62,74.62,0,0,0,514.59,301ZM425,248.1v20.17h.5a37.18,37.18,0,0,1,19.43-18,74.06,74.06,0,0,1,29.16-5.62q17.65,0,30.77,6.34a62.36,62.36,0,0,1,21.79,17.13A75.18,75.18,0,0,1,539.72,293a99.47,99.47,0,0,1,4.42,29.94,102.75,102.75,0,0,1-4.27,29.94,69.82,69.82,0,0,1-13,24.61A60.86,60.86,0,0,1,505.13,394q-13.12,6-30.49,6.05a77.67,77.67,0,0,1-12.51-1.15,71.22,71.22,0,0,1-13.69-3.75,53.81,53.81,0,0,1-12.81-7.06A39.6,39.6,0,0,1,425.47,377H425v76.84H399.71V248.1H425"/><path id="path18" d="M666.81,291.91a41.79,41.79,0,0,0-9.11-13.35A43.19,43.19,0,0,0,627,266.35a44.54,44.54,0,0,0-17.51,3.3,40.67,40.67,0,0,0-13.38,9.05,43.4,43.4,0,0,0-8.82,13.36,49.94,49.94,0,0,0-3.83,16.23h87.37a49.13,49.13,0,0,0-4-16.38Zm6.12,95.51q-17.11,12.65-43.08,12.65-18.3,0-31.73-5.75a62.64,62.64,0,0,1-22.58-16.12,68,68,0,0,1-13.72-24.76,116.46,116.46,0,0,1-5.16-31.37A87.42,87.42,0,0,1,562,291a73.8,73.8,0,0,1,14.91-24.47,67.66,67.66,0,0,1,22.74-16.12,71.11,71.11,0,0,1,28.8-5.75q20.39,0,33.82,8.21a66.27,66.27,0,0,1,21.56,20.91A81.46,81.46,0,0,1,695,301.45,115.55,115.55,0,0,1,697.55,330H583.42a57.75,57.75,0,0,0,2.36,18.54,41.6,41.6,0,0,0,8.53,15.52,42.23,42.23,0,0,0,15,10.77q9.12,4,21.49,4,15.9,0,26.06-7.2t13.39-21.91h24.78q-5,25-22.13,37.68"/><path id="path20" d="M738,248.1v23.63h.48q15.69-27.09,49.77-27.09,15.11,0,25.19,4a39.85,39.85,0,0,1,25,28.39A90.26,90.26,0,0,1,841,299.11v98H815.76V296.3q0-13.82-8.28-21.89t-22.76-8.06a52.31,52.31,0,0,0-20,3.46,37.22,37.22,0,0,0-14,9.79,42,42,0,0,0-8.41,14.83A58.63,58.63,0,0,0,739.51,313v84.1H714.26v-149H738"/><path id="path22" d="M1015.55,395.49A90.08,90.08,0,0,1,981,402.54q-27.51,0-49.47-9.36a105.7,105.7,0,0,1-37-25.77,113.64,113.64,0,0,1-23.14-38.57,139.06,139.06,0,0,1-8-47.77,144,144,0,0,1,8-48.75,116.49,116.49,0,0,1,23.08-39.23,105.4,105.4,0,0,1,37-26.27q22-9.52,49.46-9.52a118.29,118.29,0,0,1,35.7,5.43,102.05,102.05,0,0,1,31.19,16,88.14,88.14,0,0,1,23,25.95q9.06,15.42,11.07,35.4h-50.29q-4.71-19.65-18.11-29.48t-32.53-9.83q-17.77,0-30.18,6.73a56.6,56.6,0,0,0-20.12,18.06,77.92,77.92,0,0,0-11.23,25.77,125.5,125.5,0,0,0-3.52,29.87,116.84,116.84,0,0,0,3.53,28.73A76.9,76.9,0,0,0,930.61,335a57.2,57.2,0,0,0,20.15,17.89q12.42,6.72,30.22,6.73,26.17,0,40.44-12.91t16.63-37.42h-53V270.79h100.45v126.5H1052.1l-5.35-26.54q-14.09,17.69-31.2,24.74"/><path id="path24" d="M1170.89,163.22V353.69h116.68v43.42h-169.2V163.22h52.52"/><path id="path26" d="M922.51,426.18c-80.36,47.76-200.71,74.94-335,74.94-241.94,0-438.07-98.44-438.07-219.87S345.58,61.38,587.52,61.38c134.77,0,255.62,27.68,336,75.74C835.78,56.6,678.51,0,498.7,0,223.3,0,0,125.84,0,281.17S223.21,562.46,498.61,562.5c179.1,0,336-56.37,423.9-136.32"/></g></g></svg>