<svg xmlns="http://www.w3.org/2000/svg" viewBox="0 0 23.33 23.33"><title>Asset 1</title><path d="M11.67,0A11.67,11.67,0,1,0,23.33,11.67,11.66,11.66,0,0,0,11.67,0Zm6.07,9.27c0,.13,0,.25,0,.37,0,3.82-2.8,8.23-7.91,8.23a7.71,7.71,0,0,1-4.28-1.3c.22,0,.44,0,.66,0a5.41,5.41,0,0,0,3.45-1.24,2.8,2.8,0,0,1-2.6-2,3,3,0,0,0,.52.05,2.52,2.52,0,0,0,.73-.1,2.86,2.86,0,0,1-2.23-2.84v0a2.83,2.83,0,0,0,1.26.36A2.94,2.94,0,0,1,6.11,8.39a2.9,2.9,0,0,1,.38-1.45,7.78,7.78,0,0,0,5.73,3,3.51,3.51,0,0,1-.07-.66A2.84,2.84,0,0,1,14.93,6.4a2.68,2.68,0,0,1,2,.92,5.7,5.7,0,0,0,1.77-.7,2.93,2.93,0,0,1-1.22,1.6,5.46,5.46,0,0,0,1.6-.46l0,0A5.49,5.49,0,0,1,17.74,9.27Z"/></svg>