<svg xmlns="http://www.w3.org/2000/svg" viewBox="0 0 362.73 512"><title>html</title><path d="M33.75,0H56.83V22.8H77.94V0H101V69H77.94V45.92H56.83V69H33.75V0Z"/><path d="M131.36,22.9H111.05V0h63.72V22.9H154.44V69H131.36V22.9Z"/><path d="M184.88,0h24.06l14.8,24.26L238.53,0H262.6V69h-23V34.82L223.74,59.37h-.39L207.46,34.82V69H184.88Z"/><path d="M274.09,0h23.08V46.22h32.45V69H274.09Z"/><path d="M0,100.62,33,470.88,181.15,512l148.54-41.18,33-370.2Zm293.88,87.87-2.07,23-.91,10.21H117.13l4.15,46.5H286.77l-1.11,12.19L275,400l-.69,7.67-92.93,25.76h0l-.21.06-93-25.83-6.36-71.3h45.58l3.23,36.22,50.58,13.66,0,0h0l50.65-13.67,5.27-58.89H79.75L68.59,188.49,67.5,176.3H295Z"/></svg>