<?xml version="1.0" encoding="utf-8"?>
<!-- Generator: Adobe Illustrator 25.2.0, SVG Export Plug-In . SVG Version: 6.00 Build 0)  -->
<svg version="1.1" id="Layer_1" xmlns="http://www.w3.org/2000/svg" xmlns:xlink="http://www.w3.org/1999/xlink" x="0px" y="0px"
	 viewBox="0 0 400 125" style="enable-background:new 0 0 400 125;" xml:space="preserve">
<style type="text/css">
	.st0{clip-path:url(#SVGID_2_);}
	.st1{fill:#FFFFFF;}
</style>
<g>
	<defs>
		<path id="SVGID_1_" d="M181.4,54.4c1.4,0,2.7,0.1,3.7,0.2V53c-0.8,0-1.7-0.4-2.6-1c-0.9-0.6-1.8-1.9-2.5-3.8L161.6,1.2
			c-0.2,0-0.4,0-0.6,0c-0.2,0-0.4,0-0.6,0l-17.6,45.4c-0.8,2.2-1.8,3.8-2.8,4.8c-1,0.9-2.1,1.5-3.1,1.8v1.5c0.7-0.1,1.6-0.2,2.4-0.2
			c0.9,0,1.9,0,3.2,0c1.3,0,2.7,0,4.2,0c1.5,0,3,0.1,4.4,0.2V53c-2.1,0-3.7-0.4-4.8-1c-1.1-0.6-1.7-1.7-1.7-3.3
			c-0.1-1.5,0.4-3.6,1.5-6.3l3.1-7.9h18.1l4.6,12.3c1,2.5,1.1,4.2,0.4,5c-0.7,0.8-2.3,1.2-4.9,1.3v1.5c1-0.1,2.4-0.2,4.1-0.2
			c1.7,0,3.5,0,5.5,0C178.5,54.3,179.9,54.3,181.4,54.4z M149.7,33l8.6-22.3l8.4,22.3H149.7z M226.9,49c0.1,1.8,0.2,3.6,0.4,5.5
			c-2.5-0.1-5.4-0.2-8.6-0.2c-3.2,0-6,0-8.5,0c-1.5,0-3.5,0-6,0c-2.5,0-5.1,0-7.9,0c-2.8,0-5.4,0.1-7.9,0.2V53
			c1.7-0.1,3-0.3,3.9-0.6c0.9-0.3,1.5-0.9,1.8-1.8c0.3-0.9,0.4-2.2,0.4-4V9.5c0-1.8-0.1-3.2-0.4-4.1c-0.3-0.9-0.9-1.5-1.8-1.8
			c-0.9-0.3-2.2-0.5-3.9-0.6V1.5c1,0,2.4,0.1,4.1,0.1c1.7,0.1,3.5,0.1,5.5,0.1c1.7,0,3.5,0,5.2-0.1c1.7,0,3.2-0.1,4.3-0.1V3
			c-1.7,0-3,0.2-3.9,0.6c-0.9,0.3-1.5,0.9-1.8,1.8c-0.3,0.9-0.4,2.2-0.4,4.1v37.1c0,1.8,0.1,3.1,0.4,4c0.3,0.9,0.9,1.5,1.8,1.8
			c0.9,0.3,2.2,0.4,3.9,0.4h5.5c3.1,0,5.5-0.4,7.1-1.3c1.6-0.9,2.8-2.4,3.5-4.4c0.7-2,1.3-4.8,1.6-8.2h1.7c-0.1,1.5-0.2,3.6-0.2,6.1
			C226.8,45.9,226.9,47.3,226.9,49z M273.2,49c0.1,1.8,0.2,3.6,0.4,5.5c-2.5-0.1-5.4-0.2-8.6-0.2c-3.2,0-6,0-8.5,0c-1.5,0-3.5,0-6,0
			c-2.5,0-5.1,0-7.9,0c-2.8,0-5.4,0.1-7.9,0.2V53c1.7-0.1,3-0.3,3.9-0.6c0.9-0.3,1.5-0.9,1.8-1.8c0.3-0.9,0.4-2.2,0.4-4V9.5
			c0-1.8-0.1-3.2-0.4-4.1c-0.3-0.9-0.9-1.5-1.8-1.8c-0.9-0.3-2.2-0.5-3.9-0.6V1.5c2.4,0,5.1,0.1,7.9,0.1c2.8,0.1,5.4,0.1,7.9,0.1
			c2.5,0,4.5,0,6,0c2.3,0,4.9,0,7.8,0c2.9,0,5.5-0.1,7.8-0.2c-0.2,1.7-0.3,3.4-0.4,5.1c-0.1,1.6-0.1,2.9-0.1,3.7
			c0,0.9,0,1.8,0.1,2.6c0,0.8,0.1,1.5,0.1,2.1h-1.7c-0.3-2.9-0.7-5.3-1.3-7c-0.5-1.7-1.5-2.9-2.8-3.7c-1.3-0.7-3.3-1.1-6-1.1h-6.2
			c-1.7,0-3,0.1-3.9,0.4c-0.9,0.3-1.5,0.8-1.8,1.7c-0.3,0.9-0.4,2.2-0.4,4.1v17.7h4.9c2.2,0,3.7-0.6,4.6-1.7c0.9-1.1,1.4-2.5,1.7-4
			c0.2-1.5,0.5-2.9,0.7-4.1h1.7c-0.2,2.8-0.3,5-0.3,6.5c0,1.5,0,2.9,0,4.1c0,1.2,0,2.6,0.1,4.1c0,1.5,0.2,3.7,0.4,6.5h-1.7
			c-0.2-1.6-0.4-3.2-0.7-4.7c-0.3-1.5-0.9-2.8-1.8-3.7c-0.9-1-2.5-1.5-4.7-1.5h-4.9v18c0,1.8,0.1,3.1,0.4,4c0.3,0.9,0.9,1.5,1.8,1.8
			c0.9,0.3,2.2,0.4,3.9,0.4h5.5c3.1,0,5.5-0.4,7.1-1.3c1.6-0.8,2.8-2.2,3.5-4.2c0.7-1.9,1.3-4.5,1.6-7.8h1.7
			c-0.1,1.3-0.2,3.1-0.2,5.4C273.1,45.9,273.1,47.3,273.2,49z M326.4,54.5c-0.6,0-1.6-0.1-2.7-0.2c-1.2-0.1-2.4-0.1-3.7-0.1
			c-2,0-4,0-6,0.1c-2,0.1-3.5,0.1-4.5,0.2V53c2.5,0,4.1-0.1,4.8-0.4c0.7-0.3,0.7-1,0-2.1l-12.8-19.6l-8.1,12
			c-1.8,2.7-2.7,4.8-2.8,6.2c-0.1,1.4,0.5,2.5,1.7,3c1.2,0.6,2.8,0.9,4.9,0.9v1.5c-0.9,0-2-0.1-3.3-0.1c-1.2,0-2.5,0-3.7-0.1
			c-1.2,0-2.2,0-3.1,0c-2.7,0-4.9,0.1-6.4,0.2V53c1.5-0.2,3-0.9,4.3-2.1c1.3-1.1,2.7-2.7,4.1-4.8l11.3-16.8L285.7,6.8
			c-0.9-1.4-1.7-2.4-2.4-2.9c-0.6-0.5-1.5-0.8-2.7-0.8V1.5c0.6,0,1.6,0.1,2.8,0.2c1.2,0.1,2.4,0.1,3.7,0.1c2,0,4,0,5.8-0.1
			c1.8-0.1,3.4-0.1,4.8-0.2v1.6c-2.5,0-4,0.3-4.6,0.8c-0.5,0.5-0.5,1.4,0.2,2.5L305,24.2l7.4-11c2.7-4,3.7-6.7,3.1-8.1
			c-0.6-1.3-2.5-2-5.7-2.1V1.5c1.4,0,2.9,0.1,4.4,0.1c1.5,0.1,2.9,0.1,4.2,0.1c2.7,0,4.9-0.1,6.4-0.2V3c-1.5,0.2-3,0.9-4.3,2.1
			c-1.3,1.2-2.7,2.8-4.1,4.8l-10.5,15.6l15.5,23.7c0.9,1.4,1.7,2.4,2.4,2.9c0.6,0.5,1.5,0.8,2.6,0.9V54.5z M354,54.3
			c-1.5,0-3.5,0-6,0c-2.5,0-5.1,0-7.9,0c-2.8,0-5.4,0.1-7.9,0.2V53c1.7-0.1,3-0.3,3.9-0.6c0.9-0.3,1.5-0.9,1.8-1.8
			c0.3-0.9,0.4-2.2,0.4-4V9.5c0-1.8-0.1-3.2-0.4-4.1c-0.3-0.9-0.9-1.5-1.8-1.8c-0.9-0.3-2.2-0.5-3.9-0.6V1.5c2.4,0,5.1,0.1,7.9,0.1
			c2.8,0.1,5.4,0.1,7.9,0.1c2.5,0,4.5,0,6,0c2.3,0,4.9,0,7.8,0c2.9,0,5.5-0.1,7.8-0.2c-0.2,1.7-0.3,3.4-0.4,5.1
			c-0.1,1.6-0.1,2.9-0.1,3.7c0,0.9,0,1.8,0.1,2.6c0,0.8,0.1,1.5,0.1,2.1h-1.7c-0.3-2.9-0.7-5.3-1.3-7c-0.5-1.7-1.5-2.9-2.8-3.7
			c-1.3-0.7-3.3-1.1-6-1.1h-6.2c-1.7,0-3,0.1-3.9,0.4c-0.9,0.3-1.5,0.8-1.8,1.7c-0.3,0.9-0.4,2.2-0.4,4.1v17.7h4.9
			c2.2,0,3.7-0.6,4.6-1.7c0.9-1.1,1.4-2.5,1.7-4c0.2-1.5,0.5-2.9,0.7-4.1h1.7c-0.2,2.8-0.3,5-0.3,6.5c0,1.5,0,2.9,0,4.1
			c0,1.2,0,2.6,0.1,4.1c0,1.5,0.2,3.7,0.4,6.5h-1.7c-0.2-1.6-0.4-3.2-0.7-4.7c-0.3-1.5-0.9-2.8-1.8-3.7c-0.9-1-2.5-1.5-4.7-1.5h-4.9
			v18c0,1.8,0.1,3.1,0.4,4c0.3,0.9,0.9,1.5,1.8,1.8c0.9,0.3,2.2,0.4,3.9,0.4h5.5c3.1,0,5.5-0.4,7.1-1.3c1.6-0.8,2.8-2.2,3.5-4.2
			c0.7-1.9,1.3-4.5,1.6-7.8h1.7c-0.1,1.3-0.2,3.1-0.2,5.4c0,0.9,0,2.3,0.1,4.1c0.1,1.8,0.2,3.6,0.4,5.5c-2.5-0.1-5.4-0.2-8.6-0.2
			C359.3,54.3,356.5,54.3,354,54.3z M384.3,54.4c-1.7,0-3.1,0.1-4.1,0.2V53c1.7-0.1,3-0.3,3.9-0.6c0.9-0.3,1.5-0.9,1.8-1.8
			c0.3-0.9,0.4-2.2,0.4-4V9.5c0-1.8-0.1-3.2-0.4-4.1c-0.3-0.9-0.9-1.5-1.8-1.8c-0.9-0.3-2.2-0.5-3.9-0.6V1.5c1,0,2.4,0.1,4.1,0.1
			c1.7,0.1,3.5,0.1,5.5,0.1c1.7,0,3.5,0,5.2-0.1c1.7,0,3.2-0.1,4.3-0.1V3c-1.7,0-3,0.2-3.9,0.6c-0.9,0.3-1.5,0.9-1.8,1.8
			c-0.3,0.9-0.4,2.2-0.4,4.1v37.1c0,1.8,0.1,3.1,0.4,4c0.3,0.9,0.9,1.5,1.8,1.8c0.9,0.3,2.2,0.5,3.9,0.6v1.5
			c-1.1-0.1-2.6-0.2-4.3-0.2c-1.7,0-3.5,0-5.2,0C387.8,54.3,385.9,54.3,384.3,54.4z M97.3,117.2L79,70.1c-0.2,0-0.4,0-0.6,0
			c-0.2,0-0.4,0-0.6,0l-17.6,45.4c-0.8,2.2-1.8,3.8-2.8,4.8c-1,0.9-2.1,1.5-3.1,1.8v1.5c0.7-0.1,1.6-0.2,2.4-0.2c0.9,0,1.9,0,3.2,0
			c1.3,0,2.7,0,4.2,0c1.5,0,3,0.1,4.4,0.2V122c-2.1,0-3.7-0.4-4.8-1c-1.1-0.6-1.7-1.7-1.7-3.3c-0.1-1.5,0.4-3.6,1.5-6.3l3.1-7.9
			h18.1l4.6,12.3c1,2.5,1.1,4.2,0.4,5c-0.7,0.8-2.3,1.2-4.9,1.3v1.5c1-0.1,2.4-0.2,4.1-0.2c1.7,0,3.5,0,5.5,0c1.4,0,2.9,0,4.3,0
			c1.4,0,2.7,0.1,3.7,0.2V122c-0.8,0-1.7-0.4-2.6-1C98.9,120.3,98,119.1,97.3,117.2z M67.2,101.9l8.6-22.3l8.4,22.3H67.2z
			 M144.4,118c0.1,1.8,0.2,3.6,0.4,5.5c-2.5-0.1-5.4-0.2-8.6-0.2c-3.2,0-6,0-8.5,0c-1.5,0-3.5,0-6,0s-5.1,0-7.9,0
			c-2.8,0-5.4,0.1-7.9,0.2V122c1.7-0.1,3-0.3,3.9-0.6c0.9-0.3,1.5-0.9,1.8-1.8c0.3-0.9,0.4-2.2,0.4-4V78.4c0-1.8-0.1-3.2-0.4-4.1
			c-0.3-0.9-0.9-1.5-1.8-1.8c-0.9-0.3-2.2-0.5-3.9-0.6v-1.5c1,0.1,2.4,0.1,4.1,0.1c1.7,0,3.5,0.1,5.5,0.1c1.7,0,3.5,0,5.2-0.1
			c1.7,0,3.2-0.1,4.3-0.1V72c-1.7,0.1-3,0.2-3.9,0.6c-0.9,0.3-1.5,0.9-1.8,1.8c-0.3,0.9-0.4,2.2-0.4,4.1v37.1c0,1.8,0.1,3.1,0.4,4
			c0.3,0.9,0.9,1.5,1.8,1.8c0.9,0.3,2.2,0.4,3.9,0.4h5.5c3.1,0,5.5-0.4,7.1-1.3c1.6-0.9,2.8-2.4,3.5-4.4c0.7-2,1.3-4.8,1.6-8.2h1.7
			c-0.1,1.5-0.2,3.6-0.2,6.1C144.2,114.8,144.3,116.2,144.4,118z M167,70.6c1.7,0,3.2-0.1,4.3-0.1V72c-1.7,0.1-3,0.2-3.9,0.6
			c-0.9,0.3-1.5,0.9-1.8,1.8c-0.3,0.9-0.4,2.2-0.4,4.1v37.1c0,1.8,0.1,3.1,0.4,4c0.3,0.9,0.9,1.5,1.8,1.8c0.9,0.3,2.2,0.5,3.9,0.6
			v1.5c-1.1-0.1-2.6-0.2-4.3-0.2c-1.7,0-3.5,0-5.2,0c-1.9,0-3.8,0-5.5,0c-1.7,0-3.1,0.1-4.1,0.2V122c1.7-0.1,3-0.3,3.9-0.6
			c0.9-0.3,1.5-0.9,1.8-1.8c0.3-0.9,0.4-2.2,0.4-4V78.4c0-1.8-0.1-3.2-0.4-4.1c-0.3-0.9-0.9-1.5-1.8-1.8c-0.9-0.3-2.2-0.5-3.9-0.6
			v-1.5c1,0.1,2.4,0.1,4.1,0.1c1.7,0,3.5,0.1,5.5,0.1C163.5,70.7,165.2,70.7,167,70.6z M219.1,117.2l-18.3-47.1c-0.2,0-0.4,0-0.6,0
			c-0.2,0-0.4,0-0.6,0L182,115.5c-0.8,2.2-1.8,3.8-2.8,4.8c-1,0.9-2.1,1.5-3.1,1.8v1.5c0.7-0.1,1.6-0.2,2.4-0.2c0.9,0,1.9,0,3.2,0
			c1.3,0,2.7,0,4.2,0c1.5,0,3,0.1,4.4,0.2V122c-2.1,0-3.7-0.4-4.8-1c-1.1-0.6-1.7-1.7-1.7-3.3c-0.1-1.5,0.4-3.6,1.5-6.3l3.1-7.9
			h18.1l4.6,12.3c1,2.5,1.1,4.2,0.4,5c-0.7,0.8-2.3,1.2-4.9,1.3v1.5c1-0.1,2.4-0.2,4.1-0.2c1.7,0,3.5,0,5.5,0c1.4,0,2.9,0,4.3,0
			c1.4,0,2.7,0.1,3.7,0.2V122c-0.8,0-1.7-0.4-2.6-1C220.7,120.3,219.9,119.1,219.1,117.2z M189,101.9l8.6-22.3l8.4,22.3H189z
			 M248.1,70.5c-0.9,0-2.4,0-4.6,0.1c-2.1,0-4.4,0.1-6.7,0.1c-1.6,0-3.3,0-5-0.1c-1.7,0-3.1-0.1-4.1-0.1V72c1.7,0.1,3,0.2,3.9,0.6
			c0.9,0.3,1.5,0.9,1.8,1.8c0.3,0.9,0.4,2.2,0.4,4.1v37.1c0,1.8-0.1,3.1-0.4,4c-0.3,0.9-0.9,1.5-1.8,1.8c-0.9,0.3-2.2,0.5-3.9,0.6
			v1.5c1-0.1,2.4-0.2,4.1-0.2c1.7,0,3.5,0,5.5,0c2,0,4.1,0,6.1,0c2,0,3.6,0.1,4.9,0.2V122c-2.1-0.1-3.7-0.3-4.8-0.6
			c-1.1-0.3-1.8-0.9-2.2-1.8c-0.4-0.9-0.6-2.2-0.6-4v-13.5h5.8c3.9,0,7.1-0.5,9.7-1.6c2.5-1,4.6-2.4,6-4.1c1.5-1.7,2.5-3.5,3.1-5.5
			c0.6-2,0.9-3.9,0.9-5.7c0-4.3-1.5-7.9-4.5-10.6C258.7,71.9,254.2,70.5,248.1,70.5z M257.7,93.2c-0.7,2.2-1.9,4-3.8,5.3
			c-1.9,1.3-4.6,2-8.1,2h-5V78.4c0-2.6,0.3-4.3,1-5.2c0.7-0.8,2.2-1.3,4.5-1.3c4.5,0,7.7,1.2,9.6,3.5c1.9,2.3,2.8,5.9,2.8,10.6
			C258.7,88.7,258.4,91,257.7,93.2z M315.8,120.3c1,0.7,2.3,1.2,3.8,1.6v1.5c-1.2-0.1-2.7-0.2-4.5-0.2c-1.8,0-3.3,0-4.5,0
			c-0.8,0-1.9,0-3.1,0c-1.2,0-2.8,0.1-4.6,0.2V122c1.7-0.1,2.8-0.4,3.2-0.9c0.4-0.5,0.3-1.3-0.5-2.5l-10.9-16.5
			c-1-1.5-1.9-2.7-2.7-3.5c-0.8-0.8-1.6-1.3-2.4-1.5c-0.8-0.2-1.7-0.4-2.8-0.4v18.8c0,1.8,0.1,3.1,0.4,4c0.3,0.9,0.9,1.5,1.8,1.8
			c0.9,0.3,2.2,0.5,3.9,0.6v1.5c-1.1-0.1-2.6-0.2-4.3-0.2c-1.7,0-3.5,0-5.2,0c-1.9,0-3.8,0-5.5,0c-1.7,0-3.1,0.1-4.1,0.2V122
			c1.7-0.1,3-0.3,3.9-0.6c0.9-0.3,1.5-0.9,1.8-1.8c0.3-0.9,0.4-2.2,0.4-4V78.4c0-1.8-0.1-3.2-0.4-4.1c-0.3-0.9-0.9-1.5-1.8-1.8
			c-0.9-0.3-2.2-0.5-3.9-0.6v-1.5c1,0.1,2.4,0.1,4.1,0.1c1.7,0,3.5,0.1,5.5,0.1c1.7,0,3.5,0,5.2-0.1c1.7,0,3.2-0.1,4.3-0.1V72
			c-1.7,0.1-3,0.2-3.9,0.6c-0.9,0.3-1.5,0.9-1.8,1.8c-0.3,0.9-0.4,2.2-0.4,4.1v16.7c2-0.1,3.6-0.5,5-1.2c1.4-0.8,2.6-1.8,3.6-3
			l7.2-9.1c1.6-2.1,2.8-3.9,3.4-5.3c0.6-1.4,0.6-2.6-0.1-3.3c-0.6-0.8-2-1.2-4.1-1.2v-1.5c1.4,0.1,2.9,0.1,4.4,0.1
			c1.5,0,2.9,0.1,4.2,0.1c2.7,0,4.9-0.1,6.4-0.2V72c-1.5,0.2-3,0.7-4.5,1.5c-1.4,0.8-2.9,2.1-4.3,4l-12.2,15.6l17.4,24.3
			C313.8,118.7,314.8,119.6,315.8,120.3z M339.8,70.6c1.7,0,3.2-0.1,4.3-0.1V72c-1.7,0.1-3,0.2-3.9,0.6c-0.9,0.3-1.5,0.9-1.8,1.8
			c-0.3,0.9-0.4,2.2-0.4,4.1v37.1c0,1.8,0.1,3.1,0.4,4c0.3,0.9,0.9,1.5,1.8,1.8c0.9,0.3,2.2,0.5,3.9,0.6v1.5
			c-1.1-0.1-2.6-0.2-4.3-0.2c-1.7,0-3.5,0-5.2,0c-1.9,0-3.8,0-5.5,0c-1.7,0-3.1,0.1-4.1,0.2V122c1.7-0.1,3-0.3,3.9-0.6
			c0.9-0.3,1.5-0.9,1.8-1.8c0.3-0.9,0.4-2.2,0.4-4V78.4c0-1.8-0.1-3.2-0.4-4.1c-0.3-0.9-0.9-1.5-1.8-1.8c-0.9-0.3-2.2-0.5-3.9-0.6
			v-1.5c1,0.1,2.4,0.1,4.1,0.1c1.7,0,3.5,0.1,5.5,0.1C336.4,70.7,338.1,70.7,339.8,70.6z M399.7,70.5V72c-1.7,0.1-3,0.3-3.9,0.7
			c-0.9,0.4-1.5,1.2-1.8,2.2c-0.3,1-0.4,2.4-0.4,4.3v44.7c-0.3,0-0.6,0-0.9,0c-0.3,0-0.6,0-0.9,0l-31.4-48.6v39.5
			c0,1.8,0.2,3.2,0.5,4.2c0.3,1,1,1.7,1.9,2.2c1,0.4,2.4,0.7,4.4,0.8v1.5c-0.9-0.1-2.1-0.2-3.5-0.2c-1.4,0-2.8,0-4.1,0
			c-1.2,0-2.5,0-3.8,0c-1.3,0-2.3,0.1-3.2,0.2V122c1.7-0.1,3-0.4,3.9-0.8c0.9-0.4,1.5-1.1,1.8-2.2c0.3-1,0.4-2.4,0.4-4.2V78.4
			c0-1.8-0.1-3.2-0.4-4.1c-0.3-0.9-0.9-1.5-1.8-1.8c-0.9-0.3-2.2-0.5-3.9-0.6v-1.5c0.8,0.1,1.9,0.1,3.2,0.1c1.3,0,2.5,0.1,3.8,0.1
			c1.1,0,2.1,0,3.1-0.1c1,0,1.9-0.1,2.7-0.1l26.4,40.7v-32c0-1.8-0.2-3.3-0.5-4.3c-0.3-1-1-1.7-1.9-2.2c-1-0.4-2.4-0.7-4.4-0.7v-1.5
			c0.9,0.1,2.1,0.1,3.6,0.1c1.5,0,2.8,0.1,4.1,0.1c1.3,0,2.6,0,3.9-0.1C397.8,70.6,398.9,70.5,399.7,70.5z"/>
	</defs>
	<clipPath id="SVGID_2_">
		<use xlink:href="#SVGID_1_"  style="overflow:visible;"/>
	</clipPath>
	<g class="st0">
		<rect x="47" y="-2" class="st1" width="358" height="1"/>
		<rect x="47" class="st1" width="358" height="1"/>
		<rect x="47" y="2" class="st1" width="358" height="1"/>
		<rect x="47" y="4" class="st1" width="358" height="1"/>
		<rect x="47" y="6" class="st1" width="358" height="1"/>
		<rect x="47" y="8" class="st1" width="358" height="1"/>
		<rect x="47" y="10" class="st1" width="358" height="1"/>
		<rect x="47" y="12" class="st1" width="358" height="1"/>
		<rect x="47" y="14" class="st1" width="358" height="1"/>
		<rect x="47" y="16" class="st1" width="358" height="1"/>
		<rect x="47" y="18" class="st1" width="358" height="1"/>
		<rect x="47" y="20" class="st1" width="358" height="1"/>
		<rect x="47" y="22" class="st1" width="358" height="1"/>
		<rect x="47" y="24" class="st1" width="358" height="1"/>
		<rect x="47" y="26" class="st1" width="358" height="1"/>
		<rect x="47" y="28" class="st1" width="358" height="1"/>
		<rect x="47" y="30" class="st1" width="358" height="1"/>
		<rect x="47" y="32" class="st1" width="358" height="1"/>
		<rect x="47" y="34" class="st1" width="358" height="1"/>
		<rect x="47" y="36" class="st1" width="358" height="1"/>
		<rect x="47" y="38" class="st1" width="358" height="1"/>
		<rect x="47" y="40" class="st1" width="358" height="1"/>
		<rect x="47" y="42" class="st1" width="358" height="1"/>
		<rect x="47" y="44" class="st1" width="358" height="1"/>
		<rect x="47" y="46" class="st1" width="358" height="1"/>
		<rect x="47" y="48" class="st1" width="358" height="1"/>
		<rect x="47" y="50" class="st1" width="358" height="1"/>
		<rect x="47" y="52" class="st1" width="358" height="1"/>
		<rect x="47" y="54" class="st1" width="358" height="1"/>
		<rect x="47" y="56" class="st1" width="358" height="1"/>
		<rect x="47" y="58" class="st1" width="358" height="1"/>
		<rect x="47" y="60" class="st1" width="358" height="1"/>
		<rect x="47" y="62" class="st1" width="358" height="1"/>
		<rect x="47" y="64" class="st1" width="358" height="1"/>
		<rect x="47" y="66" class="st1" width="358" height="1"/>
		<rect x="47" y="68" class="st1" width="358" height="1"/>
		<rect x="47" y="70" class="st1" width="358" height="1"/>
		<rect x="47" y="72" class="st1" width="358" height="1"/>
		<rect x="47" y="74" class="st1" width="358" height="1"/>
		<rect x="47" y="76" class="st1" width="358" height="1"/>
		<rect x="47" y="78" class="st1" width="358" height="1"/>
		<rect x="47" y="80" class="st1" width="358" height="1"/>
		<rect x="47" y="82" class="st1" width="358" height="1"/>
		<rect x="47" y="84" class="st1" width="358" height="1"/>
		<rect x="47" y="86" class="st1" width="358" height="1"/>
		<rect x="47" y="88" class="st1" width="358" height="1"/>
		<rect x="47" y="90" class="st1" width="358" height="1"/>
		<rect x="47" y="92" class="st1" width="358" height="1"/>
		<rect x="47" y="94" class="st1" width="358" height="1"/>
		<rect x="47" y="96" class="st1" width="358" height="1"/>
		<rect x="47" y="98" class="st1" width="358" height="1"/>
		<rect x="47" y="100" class="st1" width="358" height="1"/>
		<rect x="47" y="102" class="st1" width="358" height="1"/>
		<rect x="47" y="104" class="st1" width="358" height="1"/>
		<rect x="47" y="106" class="st1" width="358" height="1"/>
		<rect x="47" y="108" class="st1" width="358" height="1"/>
		<rect x="47" y="110" class="st1" width="358" height="1"/>
		<rect x="47" y="112" class="st1" width="358" height="1"/>
		<rect x="47" y="114" class="st1" width="358" height="1"/>
		<rect x="47" y="116" class="st1" width="358" height="1"/>
		<rect x="47" y="118" class="st1" width="358" height="1"/>
		<rect x="47" y="120" class="st1" width="358" height="1"/>
		<rect x="47" y="122" class="st1" width="358" height="1"/>
		<rect x="47" y="124" class="st1" width="358" height="1"/>
		<rect x="47" y="126" class="st1" width="358" height="1"/>
		<rect x="47" y="128" class="st1" width="358" height="1"/>
	</g>
</g>
<g id="stroke">
	<path class="st1" d="M161,2.4l17.9,46.2c0.8,2.1,1.8,3.5,2.9,4.2c0.3,0.2,0.6,0.4,0.9,0.5c-0.4,0-0.9,0-1.4,0c-1.4,0-2.9,0-4.4,0
		c-1.9,0-3.7,0-5.4,0c0.6-0.2,1.1-0.6,1.4-0.9c1-1.1,0.9-3-0.3-6l-4.6-12.3l-0.1-0.1l-0.2-0.5l0-0.1l0,0l-0.3-0.8l-8.4-22.3
		l-0.7-1.8L161,2.4 M368.5,2.6c-0.1,1.4-0.2,2.7-0.3,4c-0.1,1.7-0.1,2.9-0.1,3.8c0,0.3,0,0.6,0,0.9c-0.2-1.4-0.5-2.5-0.8-3.5
		c-0.6-2-1.7-3.4-3.3-4.2c-0.6-0.3-1.2-0.6-2-0.7C364.4,2.7,366.6,2.7,368.5,2.6 M271,2.6c-0.1,1.4-0.2,2.7-0.3,4
		c-0.1,1.7-0.1,2.9-0.1,3.8c0,0.3,0,0.6,0,0.9c-0.2-1.4-0.5-2.5-0.8-3.5c-0.6-2-1.7-3.4-3.3-4.2c-0.6-0.3-1.2-0.6-2-0.7
		C266.9,2.7,269,2.7,271,2.6 M336.4,2.6c1.2,0,2.5,0,3.8,0.1c2.4,0,4.8,0.1,7,0.1c-1.1,0.4-1.9,1.2-2.3,2.3c-0.3,1-0.5,2.4-0.5,4.4
		v17.7v0.5v1v18c0,1.9,0.2,3.3,0.5,4.4c0.4,1.2,1.2,2,2.3,2.4c-2.2,0-4.5,0-6.9,0c-1.3,0-2.5,0-3.7,0.1c0,0,0,0,0.1,0
		c1.2-0.4,2-1.2,2.4-2.4c0.3-1,0.5-2.4,0.5-4.4V9.5c0-2-0.2-3.4-0.5-4.4c-0.4-1.1-1.2-2-2.4-2.4C336.5,2.6,336.4,2.6,336.4,2.6
		 M238.8,2.6c1.2,0,2.5,0,3.8,0.1c2.4,0,4.8,0.1,7,0.1c-1.1,0.4-1.9,1.2-2.3,2.3c-0.3,1-0.5,2.4-0.5,4.4v17.7v0.5v1v18
		c0,1.9,0.2,3.3,0.5,4.4c0.4,1.2,1.2,2,2.3,2.4c-2.2,0-4.5,0-6.9,0c-1.3,0-2.5,0-3.7,0.1c0,0,0,0,0.1,0c1.2-0.4,2-1.2,2.4-2.4
		c0.3-1,0.5-2.4,0.5-4.4V9.5c0-2-0.2-3.4-0.5-4.4c-0.4-1.1-1.2-2-2.4-2.4C238.9,2.6,238.9,2.6,238.8,2.6 M314,2.7c0.1,0,0.1,0,0.2,0
		c1.5,0.1,2.9,0.1,4.2,0.1c1.5,0,2.8,0,3.9-0.1c-0.9,0.4-1.7,0.9-2.5,1.6c-1.2,1.1-2.5,2.5-3.7,4.2c0.6-1.6,0.7-2.9,0.3-3.8
		C316,3.8,315.2,3.1,314,2.7 M394.9,2.7c-1.1,0.4-1.9,1.3-2.3,2.4c-0.3,1-0.5,2.4-0.5,4.4v37.1c0,1.9,0.2,3.3,0.5,4.4
		c0.4,1.2,1.2,2,2.3,2.4c0,0,0,0,0,0c-1.7,0-3.5,0-5.2,0c-1.9,0-3.7,0-5.3,0c1.1-0.4,1.9-1.2,2.3-2.4c0.3-1,0.5-2.4,0.5-4.4V9.5
		c0-2-0.2-3.4-0.5-4.4c-0.4-1.1-1.2-1.9-2.3-2.4c1.6,0,3.4,0.1,5.3,0.1C391.5,2.8,393.2,2.7,394.9,2.7
		C394.9,2.7,394.9,2.7,394.9,2.7 M203.3,2.7c-1.1,0.4-1.9,1.3-2.3,2.4c-0.3,1-0.5,2.4-0.5,4.4v37.1c0,1.9,0.2,3.3,0.5,4.4
		c0.4,1.2,1.2,2,2.3,2.4c-2.2,0-4.5,0-6.9,0c-1.3,0-2.5,0-3.7,0.1c0,0,0,0,0.1,0c1.2-0.4,2-1.2,2.4-2.4c0.3-1,0.5-2.4,0.5-4.4V9.5
		c0-2-0.2-3.4-0.5-4.4c-0.4-1.1-1.2-1.9-2.3-2.4c1.6,0,3.4,0.1,5.3,0.1C199.8,2.8,201.6,2.7,203.3,2.7
		C203.3,2.7,203.3,2.7,203.3,2.7 M283.3,2.7c0,0,0.1,0,0.1,0c1.2,0.1,2.5,0.1,3.7,0.1c2.1,0,4,0,5.8-0.1c0.1,0,0.1,0,0.2,0
		c-0.3,0.1-0.5,0.3-0.7,0.5c-0.6,0.6-1.2,1.8,0.1,3.8l11.6,17.8l0.5,0.8l0,0.1L305,26l0,0l0,0.1l15.5,23.7c1,1.6,1.9,2.6,2.6,3.1
		c0.2,0.2,0.5,0.3,0.8,0.5c-0.1,0-0.2,0-0.2,0c-1.2-0.1-2.5-0.1-3.8-0.1c-1.7,0-3.4,0-5.1,0.1c0.5-0.3,0.7-0.7,0.8-1
		c0.2-0.7,0-1.5-0.6-2.4l-12.8-19.6l-0.8-1.3l0,0l-0.2-0.2L286.6,6.3c-1-1.5-1.9-2.6-2.6-3.2C283.8,3,283.6,2.8,283.3,2.7
		 M260.2,20.1c-0.1,1.5-0.1,2.7-0.1,3.7c0,1.5,0,2.9,0,4.1c0,1.3,0,2.7,0.1,4.2c0,0.8,0.1,1.7,0.1,2.8c-0.1-0.4-0.1-0.8-0.2-1.2
		c-0.3-1.7-1-3.1-2.1-4.3c-0.7-0.8-1.7-1.3-3-1.5c1.3-0.3,2.3-0.9,3-1.8c1-1.3,1.6-2.8,1.9-4.5C260.1,21,260.2,20.5,260.2,20.1
		 M357.8,20.1c-0.1,1.5-0.1,2.7-0.1,3.7c0,1.5,0,2.9,0,4.1c0,1.3,0,2.7,0.1,4.2c0,0.8,0.1,1.7,0.1,2.8c-0.1-0.4-0.1-0.8-0.2-1.2
		c-0.3-1.7-1-3.1-2.1-4.3c-0.7-0.8-1.7-1.3-3-1.5c1.3-0.3,2.3-0.9,3-1.8c1-1.3,1.6-2.8,1.9-4.5C357.6,21,357.7,20.6,357.8,20.1
		 M225.8,42.5c0,0.8,0,1.6,0,2.5c0,1,0,2.3,0.1,4.1c0.1,1.4,0.2,2.9,0.3,4.4c-2.3-0.1-4.8-0.1-7.5-0.1c-0.3,0-0.5,0-0.8,0
		c1-0.2,2-0.6,2.7-1c1.8-1,3.2-2.7,4-5C225.1,46,225.5,44.4,225.8,42.5 M369.6,43.1c0,0.6,0,1.2,0,1.8c0,1,0,2.3,0.1,4.1
		c0.1,1.4,0.2,2.9,0.3,4.4c-2.3-0.1-4.8-0.1-7.5-0.1c-0.2,0-0.5,0-0.7,0c1-0.2,1.9-0.5,2.6-0.9c1.8-1,3.2-2.5,4-4.7
		C368.9,46.5,369.3,44.9,369.6,43.1 M272.1,43.1c0,0.6,0,1.2,0,1.8c0,1,0,2.3,0.1,4.1c0.1,1.4,0.2,2.9,0.3,4.4
		c-2.3-0.1-4.8-0.1-7.5-0.1c-0.2,0-0.5,0-0.7,0c1-0.2,1.9-0.5,2.6-0.9c1.8-1,3.2-2.5,4-4.7C271.4,46.5,271.8,44.9,272.1,43.1
		 M290.2,46.3c-0.4,1-0.7,2-0.7,2.7c-0.1,1.9,0.7,3.2,2.3,4c0.3,0.1,0.6,0.3,1,0.4c-0.9,0-1.7,0-2.6-0.1c-1.2,0-2.3,0-3.2,0
		c-1.5,0-2.9,0-4,0.1c0.9-0.4,1.8-1,2.6-1.7c1.4-1.2,2.9-2.9,4.3-5L290.2,46.3 M143.8,46.9c-0.1,0.7-0.2,1.3-0.1,1.9
		c0.1,2.3,1.2,3.5,2.2,4.1c0.3,0.2,0.7,0.4,1.1,0.5c0,0-0.1,0-0.1,0c-1.5,0-2.9,0-4.2,0c-1.3,0-2.3,0-3.2,0c-0.2,0-0.4,0-0.6,0
		c0.6-0.3,1.3-0.8,1.9-1.3C141.8,51,142.8,49.3,143.8,46.9L143.8,46.9 M200.2,71.3l17.9,46.2c0.8,2.1,1.8,3.5,2.9,4.2
		c0.3,0.2,0.6,0.4,0.9,0.5c-0.4,0-0.9,0-1.4,0c-1.4,0-2.9,0-4.4,0c-1.9,0-3.7,0-5.4,0c0.6-0.2,1.1-0.6,1.4-0.9c1-1.1,0.9-3-0.3-6
		l-4.6-12.3l-0.2-0.6h0l-0.3-0.8l-8.4-22.3l-0.7-1.8L200.2,71.3 M78.4,71.3l17.9,46.2c0.8,2.1,1.8,3.5,2.9,4.2
		c0.3,0.2,0.6,0.4,0.9,0.5c-0.4,0-0.9,0-1.4,0c-1.4,0-2.9,0-4.4,0c-1.9,0-3.7,0-5.4,0c0.6-0.2,1.1-0.6,1.4-0.9c1-1.1,0.9-3-0.3-6
		l-4.6-12.3l-0.2-0.6h0l-0.3-0.8l-8.4-22.3L76,77.5L78.4,71.3 M364.9,71.5l26.1,40.2l1.6,2.4v8.7h-0.2l-31.1-48.1l-1.8-2.8v3
		c-0.1-0.3-0.1-0.6-0.2-0.8c-0.4-1.1-1.1-1.9-2.2-2.3c0.9,0,1.7,0,2.6,0c1.1,0,2.2,0,3.2-0.1C363.6,71.6,364.3,71.5,364.9,71.5
		 M305.2,71.6c0.3,0,0.6,0,0.9,0c1.5,0,2.9,0.1,4.2,0.1c1.3,0,2.4,0,3.5,0c-0.7,0.3-1.4,0.6-2.1,0.9c-1.6,0.9-3.1,2.3-4.6,4.2
		l-0.4,0.6c0.1-0.2,0.1-0.3,0.2-0.5c0.7-1.8,0.7-3.3-0.2-4.4C306.2,72.2,305.8,71.8,305.2,71.6 M167,71.6c-1.1,0.4-1.9,1.3-2.3,2.4
		c-0.3,1-0.5,2.4-0.5,4.4v37.1c0,1.9,0.2,3.3,0.5,4.4c0.4,1.2,1.2,2,2.3,2.4c0,0,0,0,0,0c-1.7,0-3.5,0-5.2,0c-1.9,0-3.6,0-5.3,0
		c1.1-0.4,1.9-1.2,2.3-2.4c0.3-1,0.5-2.4,0.5-4.4V78.4c0-2-0.2-3.4-0.5-4.4c-0.4-1.1-1.2-1.9-2.3-2.4c1.6,0,3.4,0.1,5.3,0.1
		C163.5,71.7,165.3,71.7,167,71.6 M120.7,71.6c-1.1,0.4-1.9,1.3-2.3,2.4c-0.3,1-0.5,2.4-0.5,4.4v37.1c0,1.9,0.2,3.3,0.5,4.4
		c0.4,1.2,1.2,2,2.3,2.4c-2.2,0-4.5,0-6.9,0c-1.3,0-2.5,0-3.7,0.1c0,0,0,0,0.1,0c1.2-0.4,2-1.2,2.4-2.4c0.3-1,0.5-2.4,0.5-4.4V78.4
		c0-2-0.2-3.4-0.5-4.4c-0.4-1.1-1.2-1.9-2.3-2.4c1.6,0,3.4,0.1,5.3,0.1C117.2,71.7,119,71.7,120.7,71.6 M339.8,71.6
		c-1.1,0.4-1.9,1.3-2.3,2.4c-0.3,1-0.5,2.4-0.5,4.4v37.1c0,1.9,0.2,3.3,0.5,4.4c0.4,1.2,1.2,2,2.3,2.4c0,0,0,0,0,0
		c-1.7,0-3.5,0-5.2,0c-1.9,0-3.6,0-5.3,0c1.1-0.4,1.9-1.2,2.3-2.4c0.3-1,0.5-2.4,0.5-4.4V78.4c0-2-0.2-3.4-0.5-4.4
		c-0.4-1.1-1.2-1.9-2.3-2.4c1.6,0,3.4,0.1,5.3,0.1C336.4,71.7,338.1,71.7,339.8,71.6 M288.6,71.6c-1.1,0.4-1.9,1.3-2.3,2.4
		c-0.3,1-0.5,2.4-0.5,4.4v16.7v1v0.5v18.8c0,1.9,0.2,3.3,0.5,4.4c0.4,1.2,1.2,2,2.3,2.4c0,0,0,0,0,0c-1.7,0-3.5,0-5.2,0
		c-1.9,0-3.6,0-5.3,0c1.1-0.4,1.9-1.2,2.3-2.4c0.3-1,0.5-2.4,0.5-4.4V78.4c0-2-0.2-3.4-0.5-4.4c-0.4-1.1-1.2-1.9-2.3-2.4
		c1.6,0,3.4,0.1,5.3,0.1C285.1,71.7,286.8,71.7,288.6,71.6 M232,71.6c1.6,0,3.3,0.1,4.8,0.1c1.9,0,3.7,0,5.4,0c-0.5,0.2-1,0.6-1.3,1
		c-0.9,1.1-1.3,2.9-1.3,5.8v22.2v0.5v1v13.5c0,1.9,0.2,3.4,0.6,4.4c0.5,1.1,1.4,1.9,2.7,2.3c-1.9,0-3.8,0-5.7,0c-1.9,0-3.6,0-5.3,0
		c1.1-0.4,1.9-1.2,2.3-2.4c0.3-1,0.5-2.4,0.5-4.4V78.4c0-2-0.2-3.4-0.5-4.4C233.9,72.9,233.1,72.1,232,71.6 M389.5,71.6
		c1.1,0,2.2,0,3.2,0c1,0,2,0,3,0c-0.1,0.1-0.3,0.1-0.4,0.2c-1.1,0.6-1.9,1.5-2.3,2.8c-0.2,0.5-0.3,1.1-0.4,1.8
		c-0.1-0.7-0.2-1.3-0.4-1.9c-0.4-1.3-1.2-2.2-2.5-2.8C389.8,71.7,389.6,71.7,389.5,71.6 M252,71.8c3.9,0.5,6.9,1.7,9,3.6
		c2.8,2.6,4.2,5.8,4.2,9.9c0,1.7-0.3,3.5-0.9,5.4c-0.6,1.8-1.5,3.5-2.9,5.1c-1.4,1.5-3.3,2.8-5.7,3.8c-1.1,0.5-2.4,0.8-3.8,1.1
		c0.9-0.3,1.7-0.8,2.5-1.3c2-1.5,3.5-3.4,4.2-5.8c0.7-2.3,1.1-4.8,1.1-7.4c0-5-1-8.7-3-11.3C255.5,73.4,254,72.4,252,71.8
		 M294.5,93.3l0.3,0.4l17.4,24.3c0.9,1.3,1.9,2.4,3,3.2c0.7,0.5,1.4,0.9,2.3,1.2c-0.7,0-1.5,0-2.3-0.1c-1.8,0-3.3,0-4.5,0
		c-0.9,0-1.9,0-3.1,0c-0.4,0-0.9,0-1.4,0c0.3-0.2,0.6-0.4,0.8-0.6c0.8-0.9,0.6-2.1-0.4-3.7l-10.9-16.5c-1-1.6-2-2.8-2.8-3.6
		c-0.9-0.9-1.8-1.5-2.8-1.8c-0.3-0.1-0.6-0.2-1-0.2c1.2-0.2,2.4-0.6,3.3-1.1C293.1,94.4,293.8,93.8,294.5,93.3 M143.3,111.4
		c0,0.8,0,1.6,0,2.5c0,1,0,2.3,0.1,4.1c0.1,1.4,0.2,2.9,0.3,4.4c-2.3-0.1-4.8-0.1-7.5-0.1c-0.3,0-0.5,0-0.8,0c1-0.2,2-0.6,2.7-1
		c1.8-1,3.2-2.7,4-5C142.5,115,142.9,113.3,143.3,111.4 M61.2,115.8c-0.1,0.7-0.2,1.3-0.1,1.9c0.1,2.3,1.2,3.5,2.2,4.1
		c0.3,0.2,0.7,0.4,1.1,0.5c0,0-0.1,0-0.1,0c-1.5,0-3,0-4.2,0c-1.3,0-2.3,0-3.2,0c-0.2,0-0.4,0-0.6,0c0.6-0.3,1.3-0.8,1.9-1.3
		C59.2,119.9,60.3,118.2,61.2,115.8L61.2,115.8 M183,115.8c-0.1,0.7-0.2,1.3-0.1,1.9c0.1,2.3,1.2,3.5,2.2,4.1
		c0.3,0.2,0.7,0.4,1.1,0.5c0,0-0.1,0-0.1,0c-1.5,0-3,0-4.2,0c-1.3,0-2.3,0-3.2,0c-0.2,0-0.4,0-0.6,0c0.6-0.3,1.3-0.8,1.9-1.3
		C181,119.9,182.1,118.2,183,115.8L183,115.8 M359.6,117.4c0.1,0.7,0.2,1.3,0.4,1.9c0.4,1.3,1.3,2.2,2.5,2.8
		c0.1,0.1,0.3,0.1,0.4,0.2c-1.1,0-2.2,0-3.3,0c-1,0-2.1,0-3.1,0c0.1-0.1,0.3-0.1,0.4-0.2c1.1-0.5,1.9-1.5,2.3-2.8
		C359.4,118.8,359.5,118.1,359.6,117.4 M161.6,1.2c-0.2,0-0.4,0-0.6,0c-0.2,0-0.4,0-0.6,0l-17.6,45.4c-0.8,2.2-1.8,3.8-2.8,4.8
		c-1,0.9-2.1,1.5-3.1,1.8v1.5c0.7-0.1,1.6-0.2,2.4-0.2c0.9,0,1.9,0,3.2,0c1.3,0,2.7,0,4.2,0c1.5,0,3,0.1,4.4,0.2V53
		c-2.1,0-3.7-0.4-4.8-1c-1.1-0.6-1.7-1.7-1.7-3.3c-0.1-1.5,0.4-3.6,1.5-6.3l3.1-7.9h18.1l4.6,12.3c1,2.5,1.1,4.2,0.4,5
		c-0.7,0.8-2.3,1.2-4.9,1.3v1.5c1-0.1,2.4-0.2,4.1-0.2c1.7,0,3.5,0,5.5,0c1.4,0,2.9,0,4.3,0c1.4,0,2.7,0.1,3.7,0.2V53
		c-0.8,0-1.7-0.4-2.6-1c-0.9-0.6-1.8-1.9-2.5-3.8L161.6,1.2L161.6,1.2z M149.7,33l8.6-22.3l8.4,22.3H149.7L149.7,33z M399.2,1.5
		c-1.1,0-2.6,0.1-4.3,0.1c-1.7,0.1-3.5,0.1-5.2,0.1c-1.9,0-3.8,0-5.5-0.1c-1.7,0-3.1-0.1-4.1-0.1V3c1.7,0,3,0.2,3.9,0.6
		c0.9,0.3,1.5,0.9,1.8,1.8c0.3,0.9,0.4,2.2,0.4,4.1v37.1c0,1.8-0.1,3.1-0.4,4c-0.3,0.9-0.9,1.5-1.8,1.8c-0.9,0.3-2.2,0.5-3.9,0.6
		v1.5c1-0.1,2.4-0.2,4.1-0.2c1.7,0,3.5,0,5.5,0c1.7,0,3.5,0,5.2,0c1.7,0,3.2,0.1,4.3,0.2V53c-1.7-0.1-3-0.3-3.9-0.6
		c-0.9-0.3-1.5-0.9-1.8-1.8c-0.3-0.9-0.4-2.2-0.4-4V9.5c0-1.8,0.1-3.2,0.4-4.1c0.3-0.9,0.9-1.5,1.8-1.8c0.9-0.3,2.2-0.5,3.9-0.6V1.5
		L399.2,1.5z M369.7,1.5c-2.3,0.1-4.9,0.2-7.8,0.2c-2.9,0-5.5,0-7.8,0c-1.5,0-3.5,0-6,0c-2.5,0-5.1,0-7.9-0.1
		c-2.8,0-5.4-0.1-7.9-0.1V3c1.7,0,3,0.2,3.9,0.6c0.9,0.3,1.5,0.9,1.8,1.8c0.3,0.9,0.4,2.2,0.4,4.1v37.1c0,1.8-0.1,3.1-0.4,4
		c-0.3,0.9-0.9,1.5-1.8,1.8c-0.9,0.3-2.2,0.5-3.9,0.6v1.5c2.4-0.1,5.1-0.2,7.9-0.2c2.8,0,5.4,0,7.9,0c2.5,0,4.5,0,6,0
		c2.5,0,5.3,0,8.5,0c3.2,0,6.1,0.1,8.6,0.2c-0.2-1.9-0.3-3.7-0.4-5.5c-0.1-1.8-0.1-3.1-0.1-4.1c0-2.2,0.1-4,0.2-5.4h-1.7
		c-0.3,3.3-0.9,5.9-1.6,7.8c-0.7,1.9-1.9,3.3-3.5,4.2c-1.6,0.8-4,1.3-7.1,1.3h-5.5c-1.7,0-3-0.1-3.9-0.4c-0.9-0.3-1.5-0.9-1.8-1.8
		c-0.3-0.9-0.4-2.2-0.4-4v-18h4.9c2.2,0,3.8,0.5,4.7,1.5c0.9,1,1.5,2.2,1.8,3.7c0.3,1.5,0.5,3.1,0.7,4.7h1.7c-0.2-2.8-0.3-5-0.4-6.5
		c-0.1-1.5-0.1-2.9-0.1-4.1c0-1.2,0-2.6,0-4.1c0-1.5,0.1-3.7,0.3-6.5h-1.7c-0.2,1.2-0.4,2.6-0.7,4.1c-0.3,1.5-0.8,2.9-1.7,4
		c-0.9,1.1-2.4,1.7-4.6,1.7h-4.9V9.5c0-1.8,0.1-3.2,0.4-4.1c0.3-0.9,0.9-1.4,1.8-1.7c0.9-0.3,2.2-0.4,3.9-0.4h6.2
		c2.6,0,4.6,0.4,6,1.1c1.3,0.7,2.3,1.9,2.8,3.7c0.5,1.7,1,4.1,1.3,7h1.7c-0.1-0.5-0.1-1.2-0.1-2.1c-0.1-0.8-0.1-1.7-0.1-2.6
		c0-0.8,0-2.1,0.1-3.7C369.3,5,369.5,3.3,369.7,1.5L369.7,1.5z M324.8,1.5c-1.5,0.1-3.6,0.2-6.4,0.2c-1.3,0-2.7,0-4.2-0.1
		c-1.5,0-3-0.1-4.4-0.1V3c3.1,0,5,0.7,5.7,2.1c0.6,1.3-0.4,4-3.1,8.1l-7.4,11L293.4,6.4c-0.7-1.1-0.8-2-0.2-2.5
		c0.5-0.5,2.1-0.8,4.6-0.8V1.5c-1.4,0-3,0.1-4.8,0.2c-1.8,0.1-3.7,0.1-5.8,0.1c-1.2,0-2.5,0-3.7-0.1c-1.2-0.1-2.1-0.1-2.8-0.2v1.6
		c1.1,0.1,2,0.3,2.7,0.8c0.6,0.5,1.4,1.5,2.4,2.9l14.7,22.5l-11.3,16.8c-1.4,2-2.8,3.6-4.1,4.8c-1.3,1.1-2.8,1.8-4.3,2.1v1.5
		c1.5-0.1,3.6-0.2,6.4-0.2c0.9,0,1.9,0,3.1,0c1.2,0,2.4,0.1,3.7,0.1c1.2,0,2.3,0.1,3.3,0.1V53c-2.1,0-3.7-0.4-4.9-0.9
		c-1.2-0.6-1.8-1.6-1.7-3c0.1-1.4,1-3.5,2.8-6.2l8.1-12l12.8,19.6c0.7,1.1,0.7,1.8,0,2.1c-0.7,0.3-2.3,0.4-4.8,0.4v1.6
		c1,0,2.5-0.1,4.5-0.2c2-0.1,4-0.1,6-0.1c1.3,0,2.5,0,3.7,0.1c1.2,0.1,2.1,0.1,2.7,0.2V53c-1.1-0.1-2-0.4-2.6-0.9
		c-0.6-0.5-1.4-1.4-2.4-2.9l-15.5-23.7l10.5-15.6c1.4-2,2.8-3.7,4.1-4.8c1.3-1.2,2.8-1.9,4.3-2.1V1.5L324.8,1.5z M272.1,1.5
		c-2.3,0.1-4.9,0.2-7.8,0.2c-2.9,0-5.5,0-7.8,0c-1.5,0-3.5,0-6,0c-2.5,0-5.1,0-7.9-0.1c-2.8,0-5.4-0.1-7.9-0.1V3
		c1.7,0,3,0.2,3.9,0.6c0.9,0.3,1.5,0.9,1.8,1.8c0.3,0.9,0.4,2.2,0.4,4.1v37.1c0,1.8-0.1,3.1-0.4,4c-0.3,0.9-0.9,1.5-1.8,1.8
		c-0.9,0.3-2.2,0.5-3.9,0.6v1.5c2.4-0.1,5.1-0.2,7.9-0.2c2.8,0,5.4,0,7.9,0c2.5,0,4.5,0,6,0c2.5,0,5.3,0,8.5,0
		c3.2,0,6.1,0.1,8.6,0.2c-0.2-1.9-0.3-3.7-0.4-5.5c-0.1-1.8-0.1-3.1-0.1-4.1c0-2.2,0.1-4,0.2-5.4h-1.7c-0.3,3.3-0.9,5.9-1.6,7.8
		c-0.7,1.9-1.9,3.3-3.5,4.2c-1.6,0.8-4,1.3-7.1,1.3h-5.5c-1.7,0-3-0.1-3.9-0.4c-0.9-0.3-1.5-0.9-1.8-1.8c-0.3-0.9-0.4-2.2-0.4-4v-18
		h4.9c2.2,0,3.8,0.5,4.7,1.5c0.9,1,1.5,2.2,1.8,3.7c0.3,1.5,0.5,3.1,0.7,4.7h1.7c-0.2-2.8-0.3-5-0.4-6.5c-0.1-1.5-0.1-2.9-0.1-4.1
		c0-1.2,0-2.6,0-4.1c0-1.5,0.1-3.7,0.3-6.5h-1.7c-0.2,1.2-0.4,2.6-0.7,4.1c-0.3,1.5-0.8,2.9-1.7,4c-0.9,1.1-2.4,1.7-4.6,1.7h-4.9
		V9.5c0-1.8,0.1-3.2,0.4-4.1c0.3-0.9,0.9-1.4,1.8-1.7c0.9-0.3,2.2-0.4,3.9-0.4h6.2c2.6,0,4.6,0.4,6,1.1c1.3,0.7,2.3,1.9,2.8,3.7
		c0.5,1.7,1,4.1,1.3,7h1.7c-0.1-0.5-0.1-1.2-0.1-2.1c-0.1-0.8-0.1-1.7-0.1-2.6c0-0.8,0-2.1,0.1-3.7C271.8,5,271.9,3.3,272.1,1.5
		L272.1,1.5z M207.6,1.5c-1.1,0-2.6,0.1-4.3,0.1c-1.7,0.1-3.5,0.1-5.2,0.1c-1.9,0-3.8,0-5.5-0.1c-1.7,0-3.1-0.1-4.1-0.1V3
		c1.7,0,3,0.2,3.9,0.6c0.9,0.3,1.5,0.9,1.8,1.8c0.3,0.9,0.4,2.2,0.4,4.1v37.1c0,1.8-0.1,3.1-0.4,4c-0.3,0.9-0.9,1.5-1.8,1.8
		c-0.9,0.3-2.2,0.5-3.9,0.6v1.5c2.4-0.1,5.1-0.2,7.9-0.2c2.8,0,5.4,0,7.9,0c2.5,0,4.5,0,6,0c2.5,0,5.3,0,8.5,0
		c3.2,0,6.1,0.1,8.6,0.2c-0.2-1.9-0.3-3.7-0.4-5.5c-0.1-1.8-0.1-3.1-0.1-4.1c0-2.5,0.1-4.6,0.2-6.1h-1.7c-0.3,3.4-0.9,6.2-1.6,8.2
		c-0.7,2-1.9,3.5-3.5,4.4c-1.6,0.9-4,1.3-7.1,1.3h-5.5c-1.7,0-3-0.1-3.9-0.4c-0.9-0.3-1.5-0.9-1.8-1.8c-0.3-0.9-0.4-2.2-0.4-4V9.5
		c0-1.8,0.1-3.2,0.4-4.1c0.3-0.9,0.9-1.5,1.8-1.8c0.9-0.3,2.2-0.5,3.9-0.6V1.5L207.6,1.5z M200.8,70.1c-0.2,0-0.4,0-0.6,0
		c-0.2,0-0.4,0-0.6,0L182,115.5c-0.8,2.2-1.8,3.8-2.8,4.8c-1,0.9-2.1,1.5-3.1,1.8v1.5c0.7-0.1,1.6-0.2,2.4-0.2c0.9,0,1.9,0,3.2,0
		c1.3,0,2.7,0,4.2,0c1.5,0,3,0.1,4.4,0.2V122c-2.1,0-3.7-0.4-4.8-1c-1.1-0.6-1.7-1.7-1.7-3.3c-0.1-1.5,0.4-3.6,1.5-6.3l3.1-7.9h18.1
		l4.6,12.3c1,2.5,1.1,4.2,0.4,5c-0.7,0.8-2.3,1.2-4.9,1.3v1.5c1-0.1,2.4-0.2,4.1-0.2c1.7,0,3.5,0,5.5,0c1.4,0,2.9,0,4.3,0
		c1.4,0,2.7,0.1,3.7,0.2V122c-0.8,0-1.7-0.4-2.6-1c-0.9-0.6-1.8-1.9-2.5-3.8L200.8,70.1L200.8,70.1z M189,101.9l8.6-22.3l8.4,22.3
		H189L189,101.9z M79,70.1c-0.2,0-0.4,0-0.6,0c-0.2,0-0.4,0-0.6,0l-17.6,45.4c-0.8,2.2-1.8,3.8-2.8,4.8c-1,0.9-2.1,1.5-3.1,1.8v1.5
		c0.7-0.1,1.6-0.2,2.4-0.2c0.9,0,1.9,0,3.2,0c1.3,0,2.7,0,4.2,0c1.5,0,3,0.1,4.4,0.2V122c-2.1,0-3.7-0.4-4.8-1
		c-1.1-0.6-1.7-1.7-1.7-3.3c-0.1-1.5,0.4-3.6,1.5-6.3l3.1-7.9h18.1l4.6,12.3c1,2.5,1.1,4.2,0.4,5c-0.7,0.8-2.3,1.2-4.9,1.3v1.5
		c1-0.1,2.4-0.2,4.1-0.2c1.7,0,3.5,0,5.5,0c1.4,0,2.9,0,4.3,0c1.4,0,2.7,0.1,3.7,0.2V122c-0.8,0-1.7-0.4-2.6-1
		c-0.9-0.6-1.8-1.9-2.5-3.8L79,70.1L79,70.1z M67.2,101.9l8.6-22.3l8.4,22.3H67.2L67.2,101.9z M399.7,70.5c-0.8,0.1-1.8,0.1-3.1,0.1
		c-1.3,0-2.6,0.1-3.9,0.1c-1.2,0-2.6,0-4.1-0.1c-1.5,0-2.7-0.1-3.6-0.1V72c1.9,0.1,3.4,0.3,4.4,0.7c1,0.4,1.6,1.2,1.9,2.2
		c0.3,1,0.5,2.4,0.5,4.3v32l-26.4-40.7c-0.8,0.1-1.7,0.1-2.7,0.1c-1,0-2,0.1-3.1,0.1c-1.2,0-2.5,0-3.8-0.1c-1.3,0-2.3-0.1-3.2-0.1
		V72c1.7,0.1,3,0.2,3.9,0.6c0.9,0.3,1.5,0.9,1.8,1.8c0.3,0.9,0.4,2.2,0.4,4.1v36.4c0,1.8-0.1,3.2-0.4,4.2c-0.3,1-0.9,1.7-1.8,2.2
		c-0.9,0.4-2.2,0.7-3.9,0.8v1.5c0.8-0.1,1.9-0.2,3.2-0.2c1.3,0,2.5,0,3.8,0c1.3,0,2.7,0,4.1,0c1.4,0,2.6,0.1,3.5,0.2V122
		c-1.9-0.1-3.4-0.4-4.4-0.8c-1-0.4-1.6-1.1-1.9-2.2c-0.3-1-0.5-2.4-0.5-4.2V75.3l31.4,48.6c0.3,0,0.6,0,0.9,0c0.3,0,0.6,0,0.9,0
		V79.1c0-1.8,0.1-3.3,0.4-4.3c0.3-1,0.9-1.7,1.8-2.2c0.9-0.4,2.2-0.7,3.9-0.7V70.5L399.7,70.5z M344.1,70.5
		c-1.1,0.1-2.6,0.1-4.3,0.1c-1.7,0-3.5,0.1-5.2,0.1c-1.9,0-3.8,0-5.5-0.1c-1.7,0-3.1-0.1-4.1-0.1V72c1.7,0.1,3,0.2,3.9,0.6
		c0.9,0.3,1.5,0.9,1.8,1.8c0.3,0.9,0.4,2.2,0.4,4.1v37.1c0,1.8-0.1,3.1-0.4,4c-0.3,0.9-0.9,1.5-1.8,1.8c-0.9,0.3-2.2,0.5-3.9,0.6
		v1.5c1-0.1,2.4-0.2,4.1-0.2c1.7,0,3.5,0,5.5,0c1.7,0,3.5,0,5.2,0c1.7,0,3.2,0.1,4.3,0.2V122c-1.7-0.1-3-0.3-3.9-0.6
		c-0.9-0.3-1.5-0.9-1.8-1.8c-0.3-0.9-0.4-2.2-0.4-4V78.4c0-1.8,0.1-3.2,0.4-4.1c0.3-0.9,0.9-1.5,1.8-1.8c0.9-0.3,2.2-0.5,3.9-0.6
		V70.5L344.1,70.5z M316.7,70.5c-1.5,0.1-3.6,0.2-6.4,0.2c-1.3,0-2.7,0-4.2-0.1c-1.5,0-3-0.1-4.4-0.1V72c2.1,0.1,3.5,0.5,4.1,1.2
		c0.6,0.8,0.7,1.9,0.1,3.3c-0.6,1.4-1.7,3.2-3.4,5.3l-7.2,9.1c-0.9,1.2-2.1,2.2-3.6,3c-1.4,0.7-3,1.1-5,1.2V78.4
		c0-1.8,0.1-3.2,0.4-4.1c0.3-0.9,0.9-1.5,1.8-1.8c0.9-0.3,2.2-0.5,3.9-0.6v-1.5c-1.1,0.1-2.6,0.1-4.3,0.1c-1.7,0-3.5,0.1-5.2,0.1
		c-1.9,0-3.8,0-5.5-0.1c-1.7,0-3.1-0.1-4.1-0.1V72c1.7,0.1,3,0.2,3.9,0.6c0.9,0.3,1.5,0.9,1.8,1.8c0.3,0.9,0.4,2.2,0.4,4.1v37.1
		c0,1.8-0.1,3.1-0.4,4c-0.3,0.9-0.9,1.5-1.8,1.8c-0.9,0.3-2.2,0.5-3.9,0.6v1.5c1-0.1,2.4-0.2,4.1-0.2c1.7,0,3.5,0,5.5,0
		c1.7,0,3.5,0,5.2,0c1.7,0,3.2,0.1,4.3,0.2V122c-1.7-0.1-3-0.3-3.9-0.6c-0.9-0.3-1.5-0.9-1.8-1.8c-0.3-0.9-0.4-2.2-0.4-4V96.7
		c1.1,0.1,2.1,0.2,2.8,0.4c0.8,0.3,1.6,0.8,2.4,1.5c0.8,0.8,1.7,1.9,2.7,3.5l10.9,16.5c0.8,1.1,1,2,0.5,2.5
		c-0.4,0.5-1.5,0.8-3.2,0.9v1.5c1.8-0.1,3.4-0.2,4.6-0.2c1.2,0,2.3,0,3.1,0c1.2,0,2.8,0,4.5,0c1.8,0,3.3,0.1,4.5,0.2V122
		c-1.5-0.4-2.8-0.9-3.8-1.6c-1-0.7-1.9-1.7-2.8-2.9l-17.4-24.3l12.2-15.6c1.4-1.8,2.9-3.2,4.3-4c1.4-0.8,2.9-1.3,4.5-1.5V70.5
		L316.7,70.5z M227.7,70.5V72c1.7,0.1,3,0.2,3.9,0.6c0.9,0.3,1.5,0.9,1.8,1.8c0.3,0.9,0.4,2.2,0.4,4.1v37.1c0,1.8-0.1,3.1-0.4,4
		c-0.3,0.9-0.9,1.5-1.8,1.8c-0.9,0.3-2.2,0.5-3.9,0.6v1.5c1-0.1,2.4-0.2,4.1-0.2c1.7,0,3.5,0,5.5,0c2,0,4.1,0,6.1,0
		c2,0,3.6,0.1,4.9,0.2V122c-2.1-0.1-3.7-0.3-4.8-0.6c-1.1-0.3-1.8-0.9-2.2-1.8c-0.4-0.9-0.6-2.2-0.6-4v-13.5h5.8
		c3.9,0,7.1-0.5,9.7-1.6c2.5-1,4.6-2.4,6-4.1c1.5-1.7,2.5-3.5,3.1-5.5c0.6-2,0.9-3.9,0.9-5.7c0-4.3-1.5-7.9-4.5-10.6
		c-3-2.7-7.5-4.1-13.6-4.1c-0.9,0-2.4,0-4.6,0.1c-2.1,0-4.4,0.1-6.7,0.1c-1.6,0-3.3,0-5-0.1C230.1,70.6,228.8,70.5,227.7,70.5
		L227.7,70.5z M240.7,100.6V78.4c0-2.6,0.3-4.3,1-5.2c0.7-0.8,2.2-1.3,4.5-1.3c4.5,0,7.7,1.2,9.6,3.5c1.9,2.3,2.8,5.9,2.8,10.6
		c0,2.5-0.3,4.9-1,7.1c-0.7,2.2-1.9,4-3.8,5.3c-1.9,1.3-4.6,2-8.1,2H240.7L240.7,100.6z M171.3,70.5c-1.1,0.1-2.6,0.1-4.3,0.1
		c-1.7,0-3.5,0.1-5.2,0.1c-1.9,0-3.8,0-5.5-0.1c-1.7,0-3.1-0.1-4.1-0.1V72c1.7,0.1,3,0.2,3.9,0.6c0.9,0.3,1.5,0.9,1.8,1.8
		c0.3,0.9,0.4,2.2,0.4,4.1v37.1c0,1.8-0.1,3.1-0.4,4c-0.3,0.9-0.9,1.5-1.8,1.8c-0.9,0.3-2.2,0.5-3.9,0.6v1.5c1-0.1,2.4-0.2,4.1-0.2
		c1.7,0,3.5,0,5.5,0c1.7,0,3.5,0,5.2,0c1.7,0,3.2,0.1,4.3,0.2V122c-1.7-0.1-3-0.3-3.9-0.6c-0.9-0.3-1.5-0.9-1.8-1.8
		c-0.3-0.9-0.4-2.2-0.4-4V78.4c0-1.8,0.1-3.2,0.4-4.1c0.3-0.9,0.9-1.5,1.8-1.8c0.9-0.3,2.2-0.5,3.9-0.6V70.5L171.3,70.5z M125,70.5
		c-1.1,0.1-2.6,0.1-4.3,0.1c-1.7,0-3.5,0.1-5.2,0.1c-1.9,0-3.8,0-5.5-0.1c-1.7,0-3.1-0.1-4.1-0.1V72c1.7,0.1,3,0.2,3.9,0.6
		c0.9,0.3,1.5,0.9,1.8,1.8c0.3,0.9,0.4,2.2,0.4,4.1v37.1c0,1.8-0.1,3.1-0.4,4c-0.3,0.9-0.9,1.5-1.8,1.8c-0.9,0.3-2.2,0.5-3.9,0.6
		v1.5c2.4-0.1,5.1-0.2,7.9-0.2c2.8,0,5.4,0,7.9,0c2.5,0,4.5,0,6,0c2.5,0,5.3,0,8.5,0c3.2,0,6.1,0.1,8.6,0.2
		c-0.2-1.9-0.3-3.7-0.4-5.5c-0.1-1.8-0.1-3.1-0.1-4.1c0-2.5,0.1-4.6,0.2-6.1h-1.7c-0.3,3.4-0.9,6.2-1.6,8.2c-0.7,2-1.9,3.5-3.5,4.4
		c-1.6,0.9-4,1.3-7.1,1.3H125c-1.7,0-3-0.1-3.9-0.4c-0.9-0.3-1.5-0.9-1.8-1.8c-0.3-0.9-0.4-2.2-0.4-4V78.4c0-1.8,0.1-3.2,0.4-4.1
		c0.3-0.9,0.9-1.5,1.8-1.8c0.9-0.3,2.2-0.5,3.9-0.6V70.5L125,70.5z"/>
</g>
<g>
</g>
<g>
</g>
<g>
</g>
<g>
</g>
<g>
</g>
<g>
</g>
<g>
</g>
<g>
</g>
<g>
</g>
<g>
</g>
<g>
</g>
<g>
</g>
<g>
</g>
<g>
</g>
<g>
</g>
</svg>
