<svg xmlns="http://www.w3.org/2000/svg" viewBox="0 0 122.88 121.74"><defs><style>.cls-1{fill:#231f20;fill-rule:evenodd;}</style></defs><g id="Layer_2" data-name="Layer 2"><g id="Layer_1-2" data-name="Layer 1"><path class="cls-1" d="M13.16,24.71l.56-1.83c-.31,0,2.47-4.28,2.16-4.28C-4.5,38.32-2.73,64.73,7.07,83.71A73.63,73.63,0,0,0,41.29,116a69.42,69.42,0,0,0,28.52,5.7c23.69-.49,40.3-11.69,49.67-29.94l.55-1.43c-8.27,8.34-21.75,14.13-32.33,15.23C43.72,110.09-1.53,70.69,13.16,24.71Z"/><path class="cls-1" d="M76.3,80.85C99.55,84,116.89,74.19,122.88,59c-6.85,7.26-18.4,12.44-29.47,12.36C68.67,71.19,40.86,49,44,18.1c.26-2.66,1.33-6.83,4.18-12.24C40,16.21,35,24.73,36.38,39,38.29,58.65,56.83,78.24,76.3,80.85Z"/><path class="cls-1" d="M71.55,31.43C77.36,40.78,88.45,49,105.77,45.3c4.38-.93,14.28-8.38,16-12.33-14.85,10.1-24.06,6.72-28.42,5.44a28.47,28.47,0,0,1-5.26-2.52c-4.61-2.77-6.88-4-10.46-9.24a37.08,37.08,0,0,1-4.58-10C72,12.33,72.28,5.7,74.3,0c-6.72,6-7.75,17.59-5.5,25.25A43.94,43.94,0,0,0,71.55,31.43Z"/></g></g></svg>