<svg xmlns="http://www.w3.org/2000/svg" viewBox="0 0 230 230"><defs><style>.cls-1{fill:#231f20;}</style></defs><g id="Layer_2" data-name="Layer 2"><g id="Layer_2-2" data-name="Layer 2"><path class="cls-1" d="M115,0A115,115,0,1,0,230,115,115,115,0,0,0,115,0Zm77.49,135.29a8.67,8.67,0,0,1-11.63,6.1l-19.14-7.55a8.71,8.71,0,0,1-4.48-12.14c2-3.93,3.69-8.46,2.76-11.7-2-7-29-12-45-12s-43,5-45,12c-.93,3.24.72,7.77,2.76,11.7a8.71,8.71,0,0,1-4.48,12.14l-19.14,7.55a8.67,8.67,0,0,1-11.63-6.1c-2.32-10-4.86-24.83-2.51-31.29A38.19,38.19,0,0,1,60,81c12.2-3.33,30-7,55-7s42.8,3.67,55,7a38.19,38.19,0,0,1,25,23C197.35,110.46,194.81,125.32,192.49,135.29Z"/></g></g></svg>