<svg xmlns="http://www.w3.org/2000/svg" viewBox="0 0 1348.68 602.99"><g id="Layer_2" data-name="Layer 2"><g id="svg2"><path d="M1031.82,331.54h55.49q-2.47,26.28-17.42,40.11t-42.36,13.84q-18.64,0-31.66-7.22a60.46,60.46,0,0,1-21.1-19.17A83.5,83.5,0,0,1,963,332.18a128.06,128.06,0,0,1-3.69-30.8,137,137,0,0,1,3.69-32,84.62,84.62,0,0,1,11.76-27.63,59.84,59.84,0,0,1,21.07-19.36q13-7.22,31.62-7.22,20,0,34.07,10.54t19,31.61h52.68q-2.1-21.42-11.59-38a93.88,93.88,0,0,0-24.06-27.81,106.26,106.26,0,0,0-32.66-17.11,121.67,121.67,0,0,0-37.4-5.81q-28.82,0-51.81,10.2A110.6,110.6,0,0,0,936.87,207,125.71,125.71,0,0,0,912.7,249a157.61,157.61,0,0,0-8.41,52.26,152,152,0,0,0,8.43,51.21A122.15,122.15,0,0,0,937,393.85a111,111,0,0,0,38.82,27.63q23,10,51.81,10a92.28,92.28,0,0,0,36.16-7.56h0q17.92-7.54,32.68-26.52l5.6,28.45h35V290.28H1031.82Z"/><polygon points="1226.45 379.14 1226.45 174.96 1171.44 174.96 1171.44 425.69 1348.68 425.69 1348.68 379.14 1226.45 379.14"/><path d="M156.54,301.49c0-39.84,19.25-77.37,53.23-110.28L272.14,428.3H315L375.4,214l59.65,214.3h43l74.3-272.84H504L455.62,364.78,397.21,155.46H352.86L294.58,364.78l-47.29-204c83.65-57.64,217.39-95,368.1-95,141.18,0,267.75,29.68,351.93,81.2C875.44,60.68,710.71,0,522.36,0,233.89,0,0,134.9,0,301.41S233.8,602.94,522.27,603c187.6,0,351.9-60.43,444-146.13-84.18,51.19-210.24,80.33-350.9,80.33C362,537.19,156.54,431.66,156.54,301.49Z"/><path d="M692.77,346.8c0-15.89-1.62-30.39-4.83-43.11-3.28-13-8.23-24.26-14.73-33.4h0a67.19,67.19,0,0,0-25-21.62c-10.14-5-21.89-7.6-34.93-7.6-14.68,0-27.91,2.66-39.31,7.91a73.57,73.57,0,0,0-27.43,21.76c-13.69,17.51-20.92,42.18-20.92,71.33a115.81,115.81,0,0,0,5.47,36.2,84.63,84.63,0,0,0,16,29c14.67,17,35.6,26.07,60.5,26.07,13.08,0,23.76-1.37,32.64-4.18a64.8,64.8,0,0,0,17.15-8.43,72.61,72.61,0,0,0,14.87-13.12,81.5,81.5,0,0,0,9.94-14.41c5.09-9.35,7.56-18.08,8.12-22.72l.37-3.06H655.11l-.2,2.52c-.9,11.58-16.09,32.26-43.16,32.26-38.7,0-47.92-28-48.53-52.61H692.77ZM563.25,320.43c1.36-25.86,21.86-47.21,46-47.21,28.7,0,44,15.45,46.84,47.21Z"/><path d="M714.72,180.4V428.34H748.5V411.46a55.28,55.28,0,0,0,11.82,11.59c9.58,6.87,21.44,10.35,35.23,10.35,14.84,0,28.07-3.31,39.32-9.84a73.2,73.2,0,0,0,25.25-24.91,108.75,108.75,0,0,0,13.27-32.74,149.36,149.36,0,0,0,3.87-33.85,118.6,118.6,0,0,0-5.16-35.53A86.76,86.76,0,0,0,857,267.66a69.8,69.8,0,0,0-24.48-19.42,76,76,0,0,0-32.87-7.05h0a66.87,66.87,0,0,0-29.9,7.14,63.81,63.81,0,0,0-19.5,15.78V180.4Zm41.69,118c7.36-16.87,19.72-25.07,37.78-25.07,19.22,0,32.07,7.53,39.3,23,6,12.8,6.73,28.33,6.73,40.42,0,19.46-3.92,35.78-11.33,47.18-7.89,12.14-19.34,18.3-34,18.3-21.24,0-46-14.85-46-56.7C748.84,325.52,751.32,310.1,756.41,298.41Z"/></g></g></svg>