<svg xmlns="http://www.w3.org/2000/svg">

	<symbol id="icon-artstation" viewBox="0 0 176 151">
		<path d="M21.35 150.09L0 113.1H110.04L131.39 150.09H21.35Z" fill="currentColor" />
		<path d="M69.5195 0H111.72L175.52 110.51L154.53 147.23L69.5195 0Z" fill="currentColor" />
		<path d="M5.33008 91.42L53.9301 13.5L97.7501 91.42H5.33008Z" fill="currentColor" />
	</symbol>

	<symbol id="icon-git" viewBox="0 0 92 92">
		<path
			d="M90.1598 41.8499L49.9998 1.72993C48.8897 0.620367 47.3844 -0.00292969 45.8148 -0.00292969C44.2453 -0.00292969 42.7399 0.620367 41.6298 1.72993L33.2998 10.0699L43.8998 20.6299C45.1509 20.1898 46.5014 20.1141 47.7939 20.4118C49.0863 20.7094 50.2676 21.3681 51.2002 22.3112C52.1328 23.2542 52.7783 24.4428 53.0615 25.7386C53.3447 27.0343 53.2539 28.3838 52.7998 29.6299L62.9998 39.7799C64.5115 39.2616 66.1551 39.276 67.6574 39.821C69.1597 40.3659 70.4303 41.4086 71.2581 42.7756C72.0859 44.1426 72.421 45.7517 72.2078 47.3355C71.9946 48.9193 71.2458 50.3825 70.0859 51.4818C68.9261 52.5812 67.425 53.2507 65.832 53.3789C64.239 53.5071 62.6502 53.0864 61.3294 52.1867C60.0086 51.2869 59.0355 49.9624 58.5717 48.433C58.1079 46.9037 58.1813 45.2617 58.7798 43.7799L49.2798 34.2799V59.2799C49.9701 59.6156 50.599 60.0652 51.1398 60.6099C52.1838 61.6859 52.8548 63.0686 53.054 64.5545C53.2532 66.0404 52.9701 67.551 52.2463 68.8639C51.5225 70.1769 50.3963 71.2227 49.0336 71.8476C47.6708 72.4724 46.1434 72.6432 44.6762 72.3349C43.2091 72.0265 41.8797 71.2552 40.8838 70.1346C39.8879 69.014 39.278 67.6033 39.1441 66.1101C39.0101 64.6169 39.3591 63.1201 40.1396 61.8401C40.9201 60.5601 42.091 59.5645 43.4798 58.9999V33.8099C42.6155 33.46 41.8326 32.9357 41.1798 32.2699C40.188 31.2861 39.5133 30.0281 39.2424 28.6576C38.9716 27.2872 39.1169 25.8671 39.6598 24.5799L29.2398 14.1599L1.72981 41.6599C0.61964 42.7718 -0.00390625 44.2787 -0.00390625 45.8499C-0.00390625 47.4211 0.61964 48.9281 1.72981 50.0399L41.8498 90.1499C42.9599 91.2595 44.4653 91.8828 46.0348 91.8828C47.6044 91.8828 49.1097 91.2595 50.2198 90.1499L90.1598 50.2199C91.2694 49.1098 91.8927 47.6045 91.8927 46.0349C91.8927 44.4654 91.2694 42.9601 90.1598 41.8499Z"
			fill="currentColor" />
	</symbol>

	<symbol id="icon-vue" viewBox="0 0 262 227">
		<path
			d="M209.4 0H161.1L130.9 52.4L100.6 0H52.3H0L130.9 226.7L261.7 0H209.4ZM99.5 2L129.1 53.4L130.8 56.4L132.5 53.4L162.3 2H206L130.9 132L55.8 2H99.5Z"
			fill="currentColor" />
	</symbol>

	<symbol id="icon-react" viewBox="0 0 491 437">
		<path
			d="M490.6 218.5C490.6 186 449.9 155.2 387.5 136.1C401.9 72.5 395.5 21.9 367.3 5.7C360.468 1.86529 352.733 -0.0684419 344.9 0.1V22.4C348.86 22.2774 352.785 23.1726 356.3 25C369.9 32.8 375.8 62.5 371.2 100.7C370.1 110.1 368.3 120 366.1 130.1C345.199 125.062 323.985 121.421 302.6 119.2C289.861 101.626 275.964 84.9226 261 69.2C293.6 38.9 324.2 22.3 345 22.3V0C317.5 0 281.5 19.6 245.1 53.6C208.7 19.8 172.7 0.4 145.2 0.4V22.7C165.9 22.7 196.6 39.2 229.2 69.3C214.308 84.9686 200.509 101.641 187.9 119.2C166.472 121.395 145.221 125.071 124.3 130.2C122 120.2 120.3 110.5 119.1 101.2C114.4 63 120.2 33.3 133.7 25.4C136.7 23.6 140.6 22.8 145.2 22.8V0.5C137.304 0.33218 129.504 2.26473 122.6 6.1C94.5 22.3 88.2 72.8 102.7 136.2C40.5 155.4 0 186.1 0 218.5C0 250.9 40.7 281.8 103.1 300.9C88.7 364.5 95.1 415.1 123.3 431.3C129.8 435.1 137.4 436.9 145.8 436.9C173.3 436.9 209.3 417.3 245.7 383.3C282.1 417.1 318.1 436.5 345.6 436.5C353.496 436.668 361.296 434.735 368.2 430.9C396.3 414.7 402.6 364.2 388.1 300.8C450.1 281.7 490.6 250.9 490.6 218.5ZM360.4 151.8C356.7 164.7 352.1 178 346.9 191.3C342.8 183.3 338.5 175.3 333.8 167.3C329.1 159.3 324.3 151.5 319.4 143.9C333.6 146 347.3 148.6 360.4 151.8ZM314.6 258.3C306.8 271.8 298.8 284.6 290.5 296.5C275.6 297.8 260.5 298.5 245.3 298.5C230.1 298.5 215.1 297.8 200.3 296.6C192 284.7 183.933 272.033 176.1 258.6C168.5 245.533 161.567 232.267 155.3 218.8C161.5 205.4 168.5 192 176 178.9C183.8 165.4 191.8 152.6 200.1 140.7C215 139.4 230.1 138.7 245.3 138.7C260.5 138.7 275.5 139.4 290.3 140.6C298.6 152.5 306.667 165.167 314.5 178.6C322.1 191.7 329.033 204.967 335.3 218.4C329 231.8 322.1 245.2 314.6 258.3ZM346.9 245.3C352.3 258.7 356.9 272.1 360.7 285.1C347.6 288.3 333.8 291 319.5 293.1C324.4 285.4 329.3 277.5 333.9 269.4C338.5 261.3 342.8 253.3 346.9 245.3ZM245.5 352C235.691 341.817 226.412 331.136 217.7 320C226.7 320.4 235.9 320.7 245.2 320.7C254.5 320.7 263.9 320.5 273 320C264.417 331.155 255.237 341.837 245.5 352ZM171.1 293.1C156.9 291 143.2 288.4 130.1 285.2C133.8 272.3 138.4 259 143.6 245.7C147.7 253.7 152 261.7 156.7 269.7C161.4 277.7 166.2 285.5 171.1 293.1ZM245 85C254.809 95.1829 264.088 105.864 272.8 117C263.8 116.6 254.6 116.3 245.3 116.3C236 116.3 226.6 116.5 217.5 117C226.083 105.845 235.263 95.1631 245 85ZM171 143.9C166.1 151.6 161.2 159.5 156.6 167.6C152 175.7 147.7 183.6 143.6 191.6C138.2 178.2 133.6 164.8 129.8 151.8C142.9 148.7 156.7 146 171 143.9ZM80.5 269.1C45.1 254 22.2 234.2 22.2 218.5C22.2 202.8 45.1 182.9 80.5 167.9C89.1 164.2 98.5 160.9 108.2 157.8C114.318 178.584 121.835 198.931 130.7 218.7C121.93 238.372 114.513 258.619 108.5 279.3C98.6 276.2 89.2 272.8 80.5 269.1ZM134.3 412C120.7 404.2 114.8 374.5 119.4 336.3C120.5 326.9 122.3 317 124.5 306.9C145.401 311.938 166.615 315.579 188 317.8C200.739 335.374 214.636 352.077 229.6 367.8C197 398.1 166.4 414.7 145.6 414.7C141.668 414.744 137.787 413.817 134.3 412ZM371.5 335.8C376.2 374 370.4 403.7 356.9 411.6C353.9 413.4 350 414.2 345.4 414.2C324.7 414.2 294 397.7 261.4 367.6C276.292 351.931 290.091 335.259 302.7 317.7C324.128 315.505 345.379 311.829 366.3 306.7C368.545 316.302 370.28 326.015 371.5 335.8ZM410 269.1C401.4 272.8 392 276.1 382.3 279.2C376.182 258.416 368.665 238.069 359.8 218.3C368.57 198.628 375.987 178.381 382 157.7C391.9 160.8 401.3 164.2 410.1 167.9C445.5 183 468.4 202.8 468.4 218.5C468.4 234.2 445.4 254.1 410 269.1Z"
			fill="currentColor" />
		<path
			d="M245.2 264.2C270.439 264.2 290.9 243.739 290.9 218.5C290.9 193.261 270.439 172.8 245.2 172.8C219.961 172.8 199.5 193.261 199.5 218.5C199.5 243.739 219.961 264.2 245.2 264.2Z"
			fill="currentColor" />
	</symbol>

	<symbol id="icon-typescript" viewBox="0 0 24 24">
		<path
			d="M23.429 3.50909e-06H0.570001C0.495063 3.39377e-06 0.420861 0.01478 0.35164 0.0434876C0.282419 0.0721953 0.219539 0.114271 0.166596 0.167306C0.113654 0.220341 0.0716885 0.283296 0.0431022 0.352567C0.0145159 0.421838 -0.000130591 0.496066 8.78816e-07 0.571003V23.43C-0.000130854 23.505 0.0145486 23.5793 0.0431974 23.6487C0.0718461 23.718 0.113901 23.781 0.166949 23.8341C0.219998 23.8871 0.282996 23.9292 0.352333 23.9578C0.421669 23.9865 0.495979 24.0011 0.571001 24.001H23.43C23.505 24.0011 23.5793 23.9865 23.6487 23.9578C23.718 23.9292 23.781 23.8871 23.8341 23.8341C23.8871 23.781 23.9292 23.718 23.9578 23.6487C23.9865 23.5793 24.0011 23.505 24.001 23.43V0.570004C24.001 0.494981 23.9862 0.420697 23.9574 0.351411C23.9287 0.282125 23.8865 0.219199 23.8333 0.166244C23.7802 0.113288 23.7171 0.0713441 23.6477 0.0428168C23.5784 0.0142895 23.504 -0.000259726 23.429 3.50909e-06ZM14.286 12.826H11.429V21.714H9.143V12.826H6.286V10.857H14.286V12.826ZM14.926 21.206V18.831C14.926 18.831 16.224 19.809 17.781 19.809C19.338 19.809 19.278 18.791 19.278 18.651C19.278 17.174 14.866 17.174 14.866 13.9C14.866 9.448 21.295 11.205 21.295 11.205L21.215 13.321C21.215 13.321 20.137 12.602 18.919 12.602C17.701 12.602 17.262 13.182 17.262 13.8C17.262 15.397 21.714 15.238 21.714 18.452C21.714 23.402 14.926 21.207 14.926 21.207"
			fill="currentColor" />
	</symbol>

	<symbol id="icon-webgl" viewBox="0 0 16 8">
		<path
			d="M11.4504 5.85056C7.60345 9.19703 -0.0630462 7.2375 0.000391262 4.00862C0.0647038 0.736435 7.4977 -1.2001 11.4626 2.17881C9.13883 0.787716 4.91249 0.983904 2.93174 2.34662L3.49102 4.75956L4.18161 2.27915H4.70717L5.3993 4.75953L5.97252 2.27915H6.54549L5.66508 5.51215H5.15552L4.44864 2.97278L3.73317 5.51215H3.22502L2.4877 2.70934C2.11052 3.08019 1.88086 3.51547 1.85533 4.00956C1.73805 6.27997 7.50502 7.98306 11.4503 5.85056M14.527 4.92775V2.52337H13.8641V5.47587H16V4.92775H14.527ZM12.2482 4.36712H12.9169C12.8783 4.80106 12.6089 4.96103 12.309 4.99443C11.6955 5.06281 11.3771 4.61734 11.3743 4.01209C11.3605 3.66622 11.477 3.28665 11.7802 3.10553C12.1315 2.89572 12.7108 2.96378 12.8346 3.49303H13.4694C13.2655 1.98206 10.6988 2.06622 10.7113 4.01103C10.7734 5.7299 12.5648 5.83837 13.0267 5.14312L13.0942 5.47812H13.5161V3.88128H12.2482L12.2482 4.36712ZM8.88983 2.57475V3.56662C9.31352 3.04112 10.3955 3.2415 10.3955 4.37181C10.3808 4.80275 10.2662 5.03622 10.145 5.22481C9.94383 5.53743 9.2648 5.79347 8.86964 5.31269V5.51268H8.46933V2.57475H8.88983ZM8.8737 4.53187C8.8737 5.02775 9.16752 5.20368 9.41914 5.20368C9.59314 5.20368 9.72883 5.13078 9.82227 4.98687C9.91008 4.85181 9.95648 4.6585 9.95648 4.42784C9.94645 4.11797 9.91549 3.89847 9.7258 3.76556C9.53586 3.62359 9.22489 3.64912 9.08392 3.79384C8.95252 3.92875 8.86361 4.17062 8.8737 4.53187ZM8.20939 4.57887H6.6742C6.67111 5.3259 7.45036 5.31478 7.68214 4.9944C7.72133 4.94025 7.75633 4.87997 7.76305 4.79015H8.18527C8.14839 4.97262 8.09295 5.0924 8.00567 5.21409C7.78567 5.52075 7.40486 5.62012 6.99652 5.55347C6.58642 5.48653 6.2367 5.11378 6.22908 4.49043C6.1702 3.58378 7.02177 2.98265 7.79033 3.44987C8.04352 3.60381 8.21127 3.96768 8.20939 4.57887ZM7.77427 4.23393C7.76692 3.47106 6.72958 3.49193 6.67464 4.23393H7.77427Z"
			fill="currentColor" />
	</symbol>


	<symbol id="icon-instagram" viewBox="0 0 16 8">
		<path
			d="M11.4504 5.85056C7.60345 9.19703 -0.0630462 7.2375 0.000391262 4.00862C0.0647038 0.736435 7.4977 -1.2001 11.4626 2.17881C9.13883 0.787716 4.91249 0.983904 2.93174 2.34662L3.49102 4.75956L4.18161 2.27915H4.70717L5.3993 4.75953L5.97252 2.27915H6.54549L5.66508 5.51215H5.15552L4.44864 2.97278L3.73317 5.51215H3.22502L2.4877 2.70934C2.11052 3.08019 1.88086 3.51547 1.85533 4.00956C1.73805 6.27997 7.50502 7.98306 11.4503 5.85056M14.527 4.92775V2.52337H13.8641V5.47587H16V4.92775H14.527ZM12.2482 4.36712H12.9169C12.8783 4.80106 12.6089 4.96103 12.309 4.99443C11.6955 5.06281 11.3771 4.61734 11.3743 4.01209C11.3605 3.66622 11.477 3.28665 11.7802 3.10553C12.1315 2.89572 12.7108 2.96378 12.8346 3.49303H13.4694C13.2655 1.98206 10.6988 2.06622 10.7113 4.01103C10.7734 5.7299 12.5648 5.83837 13.0267 5.14312L13.0942 5.47812H13.5161V3.88128H12.2482L12.2482 4.36712ZM8.88983 2.57475V3.56662C9.31352 3.04112 10.3955 3.2415 10.3955 4.37181C10.3808 4.80275 10.2662 5.03622 10.145 5.22481C9.94383 5.53743 9.2648 5.79347 8.86964 5.31269V5.51268H8.46933V2.57475H8.88983ZM8.8737 4.53187C8.8737 5.02775 9.16752 5.20368 9.41914 5.20368C9.59314 5.20368 9.72883 5.13078 9.82227 4.98687C9.91008 4.85181 9.95648 4.6585 9.95648 4.42784C9.94645 4.11797 9.91549 3.89847 9.7258 3.76556C9.53586 3.62359 9.22489 3.64912 9.08392 3.79384C8.95252 3.92875 8.86361 4.17062 8.8737 4.53187ZM8.20939 4.57887H6.6742C6.67111 5.3259 7.45036 5.31478 7.68214 4.9944C7.72133 4.94025 7.75633 4.87997 7.76305 4.79015H8.18527C8.14839 4.97262 8.09295 5.0924 8.00567 5.21409C7.78567 5.52075 7.40486 5.62012 6.99652 5.55347C6.58642 5.48653 6.2367 5.11378 6.22908 4.49043C6.1702 3.58378 7.02177 2.98265 7.79033 3.44987C8.04352 3.60381 8.21127 3.96768 8.20939 4.57887ZM7.77427 4.23393C7.76692 3.47106 6.72958 3.49193 6.67464 4.23393H7.77427Z"
			fill="currentColor" />
	</symbol>

</svg>
