<svg xmlns="http://www.w3.org/2000/svg" viewBox="0 0 612 612"><defs><style>.cls-1{fill:#231f20;}</style></defs><g id="Layer_2" data-name="Layer 2"><g id="Layer_1-2" data-name="Layer 1"><path class="cls-1" d="M368.3,269.7c10-8.6,15-20.8,15-36.8,0-18-4.5-30.7-13.5-38s-22-11-39-11h-102v98.6h102C345.8,282.5,358.3,278.3,368.3,269.7Z"/><path class="cls-1" d="M383.5,341.6c-10.6-9.6-25.2-14.2-44.2-14.2H228.8V439H339.3c19,0,33.8-4.9,44.2-14.8s15.8-23.8,15.8-41.8C399.3,364.7,394.1,351.2,383.5,341.6Z"/><path class="cls-1" d="M510,0H102C45.9,0,0,45.9,0,102V510c0,56.1,45.9,102,102,102H510c56.1,0,102-45.9,102-102V102C612,45.9,566.1,0,510,0ZM454.3,429.7a79.21,79.21,0,0,1-23.5,31.5c-10.7,8.8-24.3,15.8-41,21s-36.5,7.8-59.5,7.8h-164V133H339.8q48,0,77,22c19.3,14.7,29,36.8,29,66.5q0,27-13.2,46.2c-8.8,12.8-21.4,22.8-37.8,29.8v1q33,7,50,31.2c11.3,16.2,17,36.4,17,60.8A101.75,101.75,0,0,1,454.3,429.7Z"/></g></g></svg>