<svg xmlns="http://www.w3.org/2000/svg" viewBox="0 0 23.33 23.33"><defs><style>.cls-1{fill:none;}.cls-2{fill:#466773;}</style></defs><title>inst</title><g id="Layer_2" data-name="Layer 2"><g id="Layer_1-2" data-name="Layer 1"><path class="cls-1" d="M18.24,11.66c0-2.13,0-2.39,0-3.23-.16-3.71-3-3.34-6.52-3.34l0,0c-2.14,0-2.39,0-3.24,0C4.69,5.31,5.07,8,5.07,11.65c0,2.73-.2,4.53.92,5.65s2.32.93,5.66.93,4.65.09,5.66-.92S18.24,15,18.24,11.66Zm-6.57,4.12a4.12,4.12,0,1,1,4.12-4.11A4.11,4.11,0,0,1,11.67,15.78ZM16,8.35a1,1,0,1,1,1-1A1,1,0,0,1,16,8.35Z"/><path class="cls-2" d="M11.67,0A11.67,11.67,0,1,0,23.33,11.67,11.68,11.68,0,0,0,11.67,0Zm8,15c-.1,2.38-1.23,3.71-2.71,4.28-1.09.42-2.16.42-5.25.42s-5.12.2-6.66-1.34-1.35-3.55-1.35-6.66S3.46,6.54,5,5A4.74,4.74,0,0,1,8.37,3.7c1.48-.07,5.13-.07,6.6,0,3,.14,4.53,1.85,4.66,4.66C19.7,9.84,19.7,13.49,19.63,15Z"/><path class="cls-1" d="M19.63,8.36C19.5,5.55,18,3.84,15,3.7c-1.47-.07-5.12-.07-6.6,0A4.74,4.74,0,0,0,5,5C3.46,6.54,3.66,8.61,3.66,11.67S3.49,16.81,5,18.33s3.65,1.34,6.66,1.34,4.16,0,5.25-.42c1.48-.57,2.61-1.9,2.71-4.28C19.7,13.49,19.7,9.84,19.63,8.36Zm-2.32,9c-1,1-2.42.92-5.66.92S7,18.28,6,17.3s-.92-2.92-.92-5.65C5.07,8,4.69,5.31,8.4,5.11c.85,0,1.1,0,3.24,0l0,0c3.56,0,6.36-.37,6.52,3.34,0,.84,0,1.1,0,3.23C18.24,15,18.3,16.31,17.31,17.31Z"/><path class="cls-2" d="M11.67,7.55a4.12,4.12,0,1,0,4.12,4.12A4.11,4.11,0,0,0,11.67,7.55Zm0,6.78a2.67,2.67,0,1,1,2.67-2.66A2.66,2.66,0,0,1,11.67,14.33Z"/><path class="cls-2" d="M17.57,6.72a1,1,0,1,1-1-1A1,1,0,0,1,17.57,6.72Z"/><path class="cls-1" d="M14.34,11.67A2.67,2.67,0,1,1,11.67,9,2.66,2.66,0,0,1,14.34,11.67Z"/></g></g></svg>