<svg xmlns="http://www.w3.org/2000/svg" width="20" height="20" fill="none" viewBox="0 0 20 20">
  <path fill="#000" d="M10 .4A9.6 9.6 0 0 0 .4 10a9.6 9.6 0 0 0 9.6 9.6 9.6 9.6 0 0 0 9.6-9.6A9.6 9.6 0 0 0 10 .4ZM7.65 13.979H5.706V7.723H7.65v6.256Zm-.984-7.024c-.614 0-1.01-.435-1.01-.973 0-.55.408-.971 1.035-.971s1.011.422 1.023.97c0 .539-.396.974-1.048.974Zm8.084 7.024h-1.944v-3.467c0-.807-.282-1.355-.985-1.355-.537 0-.856.37-.997.728-.052.127-.065.307-.065.486v3.607H8.814v-4.26c0-.781-.025-1.434-.05-1.996h1.688l.09.869h.038c.256-.408.883-1.01 1.932-1.01 1.28 0 2.238.857 2.238 2.699v3.699Z"/>
</svg>
