<svg xmlns="http://www.w3.org/2000/svg" viewBox="0 0 36 36"><defs><style>.cls-1{fill:#231f20;}</style></defs><g id="Layer_2" data-name="Layer 2"><g id="Layer_1-2" data-name="Layer 1"><path class="cls-1" d="M33.5,36h-9a2.5,2.5,0,0,1-1.77-4.27L31,23.46V19.54L15.27,35.27A2.51,2.51,0,0,1,13.5,36H2.5A2.5,2.5,0,0,1,.73,31.73L27.46,5H23.54L4.27,24.27A2.5,2.5,0,0,1,0,22.5v-11A2.51,2.51,0,0,1,.73,9.73L5.46,5h-3a2.5,2.5,0,0,1,0-5h9a2.5,2.5,0,0,1,1.77,4.27L5,12.54v3.92L20.73.73A2.51,2.51,0,0,1,22.5,0h11a2.5,2.5,0,0,1,1.77,4.27L8.54,31h3.92L31.73,11.73A2.5,2.5,0,0,1,36,13.5v11a2.51,2.51,0,0,1-.73,1.77L30.54,31h3a2.5,2.5,0,0,1,0,5Z"/></g></g></svg>