<svg xmlns="http://www.w3.org/2000/svg" viewBox="0 0 462 339"><g id="Layer_2" data-name="Layer 2"><g id="svg2"><path d="M63.5,0C42.34,21.13,21.08,42.18,0,63.39V339H397.61q32.28-32,64.39-64.21V0ZM246.15,292.6c-10.13,4.67-20.23,9.37-30.37,14q-12.94-21.36-25.88-42.73a130.77,130.77,0,0,1-35.46.47c-14.1-1.69-28.47-6-39.35-15.48-8.36-7.24-13.61-17.37-17.2-27.67-5.88-17.42-7.46-36-7.73-54.24-.14-19.76,1.12-39.83,7.08-58.79,4.61-14.26,12.24-28.49,25.13-36.85C137.5,61.32,156.21,58.79,174,59c16.94.21,34.72,3.18,48.76,13.29C233,79.41,239.59,90.48,244,101.93c7.15,18.8,9.25,39.1,9.49,59.08,0,20.12-.88,40.68-7.54,59.85a67.11,67.11,0,0,1-24.15,32.66C229.87,266.58,238.09,279.54,246.15,292.6ZM325.3,209c.26,6.29.12,12.93,2.89,18.74,2,4.48,7.46,5.63,11.89,5.78,8.35,0,16.69-.52,25-.67q.76,12.54,1.48,25.09c-16.61,2.79-34,6.13-50.54.91-6.95-2.06-13.43-6.67-16.25-13.54-5.05-11.69-5.46-24.7-5.68-37.25q0-34,0-68c-7.39,0-14.78,0-22.17,0q0-13.64,0-27.29c7.39,0,14.77,0,22.16,0,0-14,0-28,0-42h31.8c0,14,0,28,0,42.05,13.55,0,27.1,0,40.65,0q-.35,13.65-.74,27.3c-13.54,0-27.07,0-40.61,0C325.28,163.05,325.18,186,325.3,209Z"/><path d="M209.47,107.58a33.58,33.58,0,0,0-18.13-17c-9.74-3.89-20.54-4.25-30.83-2.91-8,1.13-16,4.15-21.78,10-6.62,6.83-9.88,16.13-12.12,25.19-5.44,24-4.48,49-.5,73.18,1.32,7.62,3.2,15.23,6.62,22.2a31,31,0,0,0,13.34,13.6c9.75,5.11,21.14,5.9,31.94,5.11,10.24-.8,20.91-4.22,27.83-12.19s9.17-18.55,10.82-28.62A250.33,250.33,0,0,0,218,145.05C217,132.26,214.9,119.31,209.47,107.58Z"/></g></g></svg>