<svg xmlns="http://www.w3.org/2000/svg" viewBox="0 0 2500 2373.38"><defs><style>.cls-1{fill:#231f20;}</style></defs><g id="Layer_2" data-name="Layer 2"><g id="Layer_1-2" data-name="Layer 1"><path class="cls-1" d="M1732.24,1657.55c92.25-9.55,162.24-89.08,159.06-184.53s-82.72-171.8-178.16-171.8h-6.35c-98.64,3.18-175,85.9-171.8,184.52,3.18,47.73,22.27,89.08,50.9,117.72-108.17,213.16-273.6,369-521.74,499.49-168.61,89.08-343.58,120.9-518.55,98.63-143.17-19.09-254.52-82.71-324.52-187.71C119.29,1858,109.75,1689.36,195.64,1520.74c60.45-120.9,155.88-210,216.33-254.52-12.72-41.36-31.81-111.35-41.35-162.25C-90.68,1438-43,1889.8,97,2103c105,159.08,318.14,257.7,553.56,257.7,63.62,0,127.24-6.36,190.87-22.26,407.22-79.54,715.82-321.34,890.79-680.84Zm559.92-394.5c-241.79-283.16-598.1-439-1005.31-439H1236c-28.64-57.26-89.09-95.45-155.89-95.45h-6.37c-98.61,3.19-175,85.9-171.79,184.54,3.19,95.44,82.72,171.79,178.16,171.79h6.36c70-3.18,130.44-47.72,155.88-108.17h57.27c241.79,0,470.84,70,677.64,206.8,159.06,105,273.59,241.79,337.21,407.22,54.09,133.63,50.9,264.06-6.36,375.42C2219,2134.77,2069.46,2227,1872.22,2227c-127.26,0-248.15-38.18-311.78-66.81-35,31.81-98.62,82.71-143.16,114.54,136.8,63.62,276.78,98.62,410.4,98.62,305.41,0,531.28-168.62,617.18-337.24,92.26-184.53,85.89-502.67-152.7-773.09ZM676,1711.62c3.18,95.45,82.71,171.8,178.15,171.8h6.37c98.62-3.18,175-85.9,171.78-184.52-3.17-95.45-82.71-171.8-178.15-171.8h-6.36c-6.37,0-15.92,0-22.26,3.17C695.12,1313.94,641,1078.52,660.13,824c12.71-190.88,76.34-356.32,187.69-493.13,92.26-117.72,270.41-175,391.31-178.15,337.22-6.37,480.37,413.58,489.92,582.2,41.36,9.54,111.35,31.82,159.07,47.73C1849.94,267.25,1531.81,0,1226.41,0,940.08,0,676,206.8,571,512.22,424.7,919.44,520.14,1310.76,698.29,1619.37c-15.9,22.26-25.45,57.26-22.26,92.26Z"/></g></g></svg>