<svg xmlns="http://www.w3.org/2000/svg" viewBox="0 0 23.33 23.33"><title>vk</title><g id="Layer_2" data-name="Layer 2"><g id="Layer_1-2" data-name="Layer 1"><path d="M11.67,0A11.67,11.67,0,1,0,23.33,11.67,11.66,11.66,0,0,0,11.67,0Zm6.87,16.56H16.8c-.65,0-.85-.52-2-1.71-1-1-1.48-1.13-1.73-1.13s-.46.1-.46.59v1.56c0,.42-.13.68-1.24.68a6.71,6.71,0,0,1-5.29-3.19c-2.16-3-2.74-5.29-2.74-5.75,0-.26.1-.5.58-.5H5.63c.43,0,.6.21.77.68.86,2.47,2.28,4.64,2.87,4.64.22,0,.32-.11.32-.65V9.21C9.53,8,8.9,7.93,8.9,7.52a.43.43,0,0,1,.44-.41h2.72c.38,0,.5.21.5.65V11.2c0,.37.17.51.27.51s.41-.14.82-.54a14.89,14.89,0,0,0,2.13-3.55.77.77,0,0,1,.75-.49h1.73c.53,0,.65.27.53.64a21.86,21.86,0,0,1-2.34,4c-.18.3-.25.43,0,.77s.79.77,1.2,1.25a7.29,7.29,0,0,1,1.45,2C19.27,16.31,19,16.56,18.54,16.56Z"/></g></g></svg>