<svg xmlns="http://www.w3.org/2000/svg" viewBox="0 0 311.2 251.28">
  <line class="a" y1="106.17" x2="271.62" y2="106.17"/>
  <line class="a" x1="84.61" y1="154.66" x2="283.2" y2="154.66"/>
  <path class="a" d="M121.34,118.3a15,15,0,0,0,0-24.25"/>
  <path class="a" d="M131.53,58.35a26.72,26.72,0,0,0,30.54-30.54"/>
  <path class="a" d="M5.6,111.83a7,7,0,0,0,0-11.31"/>
  <path class="a" d="M78.56,113.38a8.92,8.92,0,0,1,0-14.42"/>
  <line class="a" x1="114.9" y1="71.15" x2="114.9" y2="141.2"/>
  <line class="a" x1="108.29" y1="85.23" x2="108.29" y2="127.11"/>
  <line class="a" x1="232.54" y1="73.15" x2="232.54" y2="213.28"/>
  <line class="a" x1="249.98" x2="249.98" y2="238.85"/>
  <line class="a" x1="181.48" y1="95.45" x2="181.48" y2="251.28"/>
  <line class="a" x1="110.19" y1="6.47" x2="243.82" y2="140.1"/>
  <line class="a" x1="222.07" y1="195.93" x2="242.84" y2="195.93"/>
  <line class="a" x1="222.16" y1="202.49" x2="242.93" y2="202.49"/>
  <line class="a" x1="157.87" y1="219.54" x2="193.63" y2="219.54"/>
  <line class="a" x1="96.19" y1="143.21" x2="96.19" y2="166.11"/>
  <line class="a" x1="39.09" y1="92.48" x2="39.09" y2="119.87"/>
  <line class="a" x1="135.9" y1="95.74" x2="135.9" y2="116.61"/>
  <line class="a" x1="140.49" y1="95.74" x2="140.49" y2="116.61"/>
  <line class="a" x1="145.04" y1="95.74" x2="145.04" y2="116.61"/>
  <line class="a" x1="45.55" y1="90.26" x2="45.55" y2="122.09"/>
  <line class="a" x1="51.85" y1="88.29" x2="51.85" y2="124.06"/>
  <path class="a" d="M177,196.49a28.44,28.44,0,1,1,0,46.11"/>
  <path class="a" d="M90,70.65a43.81,43.81,0,1,0,0,71"/>
  <path class="a" d="M7.56,116.68a13,13,0,0,0,5.35-10.51A13,13,0,0,0,7.56,95.66"/>
  <path class="a" d="M101.33,106.09A36.08,36.08,0,1,1,65.25,70,36.08,36.08,0,0,1,101.33,106.09Z"/>
  <path class="a" d="M96.91,106.09a13.4,13.4,0,1,1-13.4-13.4A13.4,13.4,0,0,1,96.91,106.09Z"/>
  <path class="a" d="M146.55,29.71a13.17,13.17,0,1,1-13.17-13.18A13.17,13.17,0,0,1,146.55,29.71Z"/>
  <path class="a" d="M295.42,106.43a62.59,62.59,0,1,1-62.59-62.59A62.59,62.59,0,0,1,295.42,106.43Z"/>
  <path class="a" d="M166.07,169.47a26.33,26.33,0,1,1-26.33-26.32A26.33,26.33,0,0,1,166.07,169.47Z"/>
  <path class="a" d="M215.3,219.57a21.75,21.75,0,1,1-21.75-21.74A21.75,21.75,0,0,1,215.3,219.57Z"/>
  <path class="a" d="M150.7,29.71a17.32,17.32,0,1,1-17.32-17.32A17.32,17.32,0,0,1,150.7,29.71Z"/>
  <path class="a" d="M310.7,106.43a77.87,77.87,0,1,1-77.87-77.87A77.88,77.88,0,0,1,310.7,106.43Z"/>
  <path class="a" d="M204.34,88.3H123.66V64.64h80.68Z"/>
  <path class="a" d="M274.72,81.19H191.19v-66h83.53Z"/>
  <path class="a" d="M211,186.26h-74.3V126.55H211Z"/>
</svg>
